<svg xmlns="http://www.w3.org/2000/svg" viewBox="466 137.253 67 54.493">
  <defs>
    <style>
      .cls-1 {
        fill: #f3530f;
      }
    </style>
  </defs>
  <g id="button-arrow" transform="translate(455.28 117.153)">
    <path id="Path_1" data-name="Path 1" class="cls-1" d="M47.525,27.961l-7.593-7.593a.884.884,0,0,0-1.251,1.251l6.075,6.075H30.373a19.653,19.653,0,1,0,0,39.307.893.893,0,0,0,0-1.787,17.867,17.867,0,1,1,0-35.733H44.756l-6.075,6.075a.864.864,0,0,0,0,1.251.864.864,0,0,0,1.251,0l7.593-7.593A.864.864,0,0,0,47.525,27.961Z"/>
    <path id="Path_2" data-name="Path 2" class="cls-1" d="M58.067,27.693a.893.893,0,0,0,0,1.787,17.867,17.867,0,1,1,0,35.733H45.024L51.1,59.139a.884.884,0,0,0-1.251-1.251l-7.593,7.593a.864.864,0,0,0,0,1.251l7.593,7.593a.864.864,0,0,0,1.251,0,.864.864,0,0,0,0-1.251L45.024,67H58.067a19.653,19.653,0,1,0,0-39.307Z"/>
  </g>
</svg>
