<svg width="11" height="22" viewBox="0 0 11 22" fill="none" xmlns="http://www.w3.org/2000/svg">
<path d="M9.16665 12.4005V3.66665C9.16665 1.64162 7.52503 0 5.5 0C3.47497 0 1.83335 1.64162 1.83335 3.66665V12.4004C0.708125 13.4075 0 14.8711 0 16.5C0 19.5376 2.46245 22 5.5 22C8.53755 22 11 19.5376 11 16.5C11 14.8711 10.2919 13.4075 9.16665 12.4005ZM5.5 20.1667C3.47497 20.1667 1.83335 18.525 1.83335 16.5C1.83335 15.4414 2.28198 14.4593 3.05602 13.7665L3.6667 13.22V3.66665C3.6667 2.65414 4.48753 1.8333 5.50004 1.8333C6.51256 1.8333 7.33339 2.65409 7.33339 3.66665V13.22L7.94406 13.7665C8.7181 14.4593 9.16674 15.4413 9.16674 16.5C9.16665 18.525 7.52503 20.1667 5.5 20.1667Z" fill="#999999"/>
<path d="M6.4167 7.33335H4.58335V18.3333H6.4167V7.33335Z" fill="#999999"/>
<path d="M5.5 19.25C7.01878 19.25 8.25 18.0188 8.25 16.5C8.25 14.9812 7.01878 13.75 5.5 13.75C3.98122 13.75 2.75 14.9812 2.75 16.5C2.75 18.0188 3.98122 19.25 5.5 19.25Z" fill="#999999"/>
</svg>
