<svg width="11" height="20" viewBox="0 0 11 20" fill="none" xmlns="http://www.w3.org/2000/svg">
<path fill-rule="evenodd" clip-rule="evenodd" d="M8.02999 2.80543V4.09502C9.702 4.20815 11 5.63349 11 7.35294V10.905H0V7.35294C0 5.63349 1.298 4.20815 2.97001 4.09502V2.80543H2.68399C1.93599 2.80543 1.31999 2.17194 1.31999 1.40272C1.31999 0.633481 1.93599 0 2.68399 0H8.31601C9.06401 0 9.68001 0.633481 9.68001 1.40272C9.68001 2.17194 9.06401 2.80543 8.31601 2.80543H8.02999ZM6.04999 4.0724H6.93001V2.7828H4.06999V4.0724H4.95001V3.57466H6.04999V4.0724Z" fill="#999999"/>
<path d="M0 15.6561V12.0362H11V15.6561C11 16.9005 10.318 18.0317 9.24 18.5973V20H1.76V18.5973C0.682003 18.0317 0 16.9005 0 15.6561Z" fill="#999999"/>
</svg>
