<svg width="14" height="23" viewBox="0 0 14 23" fill="none" xmlns="http://www.w3.org/2000/svg">
<path d="M11.9 0H2.1C0.945 0 0 0.970313 0 2.15625V20.8438C0 22.0297 0.945 23 2.1 23H11.9C13.055 23 14 22.0297 14 20.8438V2.15625C14 0.970313 13.055 0 11.9 0ZM4.2 1.07812H9.8V1.79688H4.2V1.07812ZM7 21.5625C6.22681 21.5625 5.6 20.9189 5.6 20.125C5.6 19.3311 6.22681 18.6875 7 18.6875C7.77319 18.6875 8.4 19.3311 8.4 20.125C8.4 20.9189 7.77319 21.5625 7 21.5625ZM12.6 17.25H1.4V2.875H12.6V17.25Z" fill="#999999"/>
</svg>
