<svg width="16" height="21" viewBox="0 0 16 21" fill="none" xmlns="http://www.w3.org/2000/svg">
<path d="M14.865 8.48067H14.4593V6.56556C14.4593 3.02342 11.6729 0.0644583 8.19023 0.00129434C8.09507 -0.000431448 7.90492 -0.000431448 7.80981 0.00129434C4.32703 0.0644583 1.54065 3.02342 1.54065 6.56556V8.48067H1.13499C0.509887 8.48067 0 9.13138 0 9.93504V19.5405C0 20.3432 0.509887 21 1.13504 21H14.865C15.4901 21 16 20.3432 16 19.5405V9.93504C16 9.13142 15.4901 8.48067 14.865 8.48067ZM9.28631 14.728V17.6304C9.28631 17.9627 9.01049 18.244 8.68079 18.244H7.31929C6.98955 18.244 6.71373 17.9627 6.71373 17.6304V14.728C6.39395 14.4105 6.20778 13.9714 6.20778 13.4856C6.20778 12.5652 6.91308 11.7743 7.80985 11.7377C7.90488 11.7338 8.09525 11.7338 8.19028 11.7377C9.08705 11.7743 9.79235 12.5652 9.79235 13.4856C9.79226 13.9714 9.60609 14.4105 9.28631 14.728ZM11.7859 8.48067H8.19023H7.80981H4.21416V6.56556C4.21416 4.45556 5.91396 2.71092 8 2.71092C10.086 2.71092 11.7859 4.45556 11.7859 6.56556V8.48067H11.7859Z" fill="#999999"/>
</svg>
