<svg width="22" height="22" viewBox="0 0 22 22" fill="none" xmlns="http://www.w3.org/2000/svg">
<path d="M0 10.3555H2.62109V11.6445H0V10.3555Z" fill="#999999"/>
<path d="M19.3789 10.3555H22V11.6445H19.3789V10.3555Z" fill="#999999"/>
<path d="M16.4689 4.61964L18.2918 2.79683L19.2032 3.70824L17.3804 5.53105L16.4689 4.61964Z" fill="#999999"/>
<path d="M4.61948 5.53088L2.79666 3.70807L3.70807 2.79666L5.53088 4.61948L4.61948 5.53088Z" fill="#999999"/>
<path d="M10.3555 0H11.6445V2.62109H10.3555V0Z" fill="#999999"/>
<path d="M5.19922 19.4219C4.48721 19.4219 3.91016 19.9989 3.91016 20.7109V22H18.0898V20.7109C18.0898 19.9989 17.5128 19.4219 16.8008 19.4219H5.19922Z" fill="#999999"/>
<path d="M5.19922 11V18.1328H16.8008V11C16.8008 7.80135 14.1987 5.19922 11 5.19922C7.80135 5.19922 5.19922 7.80135 5.19922 11ZM10.3555 9.06641H11.6445V12.9336H10.3555V9.06641ZM10.3555 14.2227H11.6445V15.5117H10.3555V14.2227Z" fill="#999999"/>
</svg>
