<svg width="14" height="21" viewBox="0 0 14 21" fill="none" xmlns="http://www.w3.org/2000/svg">
<path d="M11.6766 8.45003C9.67966 5.78557 7.78419 3.9862 7.61501 0.456658C7.61501 0.352848 7.58117 0.283642 7.51347 0.214435C7.47963 0.0414181 7.31039 -0.062392 7.14116 0.0414181C6.93808 0.0414181 6.7689 0.179832 6.7689 0.422055C2.50423 5.12811 -4.7051 17.0663 4.36579 20.4919C8.46124 22.0492 13.0982 19.9383 13.9105 15.3706C14.3505 12.9139 13.0981 10.3187 11.6766 8.45003ZM4.39959 18.2774C3.41803 17.6891 2.80879 16.5127 2.50417 15.4745C2.36879 14.9555 2.30109 14.4365 2.33494 13.9174C2.53802 13.0177 2.80879 12.1526 3.11341 11.2876C3.28265 12.0488 3.62111 12.8101 4.09497 13.3637C5.17806 14.5749 7.37809 15.3016 7.98733 16.8241C8.35964 17.7583 6.90424 18.5543 6.295 18.7618C5.65191 18.9695 4.94108 18.6235 4.39959 18.2774Z" fill="#999999"/>
</svg>
