<svg width="22" height="22" viewBox="0 0 22 22" fill="none" xmlns="http://www.w3.org/2000/svg">
<path d="M11 12.6113C11.8899 12.6113 12.6113 11.8899 12.6113 11C12.6113 10.1101 11.8899 9.38867 11 9.38867C10.1101 9.38867 9.38867 10.1101 9.38867 11C9.38867 11.8899 10.1101 12.6113 11 12.6113Z" fill="#32609B"/>
<path fill-rule="evenodd" clip-rule="evenodd" d="M12.2891 2.02524C16.2645 2.59122 19.4088 5.73549 19.9748 9.71094H22V12.2891H19.9748C19.4088 16.2645 16.2645 19.4088 12.2891 19.9748V22H9.71094V19.9748C5.73549 19.4088 2.59122 16.2645 2.02524 12.2891H0V9.71094H2.02524C2.59122 5.73549 5.73549 2.59122 9.71094 2.02524V0H12.2891V2.02524ZM12.2891 17.3595C14.8345 16.8443 16.8443 14.8345 17.3595 12.2891H14.9102V9.71094H17.3595C16.8443 7.16554 14.8345 5.15575 12.2891 4.64046V7.08984H9.71094V4.64046C7.16554 5.15575 5.15575 7.16554 4.64046 9.71094H7.08984V12.2891H4.64046C5.15575 14.8345 7.16554 16.8443 9.71094 17.3595V14.9102H12.2891V17.3595Z" fill="#32609B"/>
</svg>
