<svg width="19" height="25" viewBox="0 0 19 25" fill="none" xmlns="http://www.w3.org/2000/svg">
<path d="M11.9475 19.0244H7.03892C6.52936 19.0244 6.11472 19.3698 6.11472 19.7943C6.11472 20.2189 6.52932 20.5643 7.03892 20.5643H11.9475C12.4571 20.5643 12.8717 20.2189 12.8717 19.7943C12.8717 19.3698 12.4572 19.0244 11.9475 19.0244Z" fill="#999999"/>
<path d="M12.8717 21.9954C12.8717 21.5708 12.4571 21.2254 11.9475 21.2254H7.03892C6.52936 21.2254 6.11472 21.5708 6.11472 21.9954C6.11472 22.4199 6.52932 22.7654 7.03892 22.7654H11.9475C12.4572 22.7654 12.8717 22.42 12.8717 21.9954Z" fill="#999999"/>
<path d="M7.73225 23.46C7.22268 23.46 6.80808 23.8055 6.80808 24.23C6.80808 24.6546 7.22268 25 7.73225 25H11.2543C11.7639 25 12.1784 24.6546 12.1784 24.23C12.1784 23.8055 11.7639 23.46 11.2543 23.46H7.73225Z" fill="#999999"/>
<path d="M13.3228 17.4295C13.3039 17.6231 13.2825 17.8422 13.1985 17.9861C13.0705 18.2051 12.8364 18.3412 12.5877 18.3411H6.39884C6.00885 18.3411 5.69012 18.0162 5.68578 17.6159C5.50703 15.8497 4.95871 14.8584 4.42837 13.8996L4.42825 13.8994C3.86265 12.877 3.32847 11.9113 3.32847 10.1424C3.32847 6.65092 6.09394 3.81045 9.4932 3.81045C12.8924 3.81045 15.658 6.65092 15.658 10.1424C15.658 11.9117 15.1237 12.8775 14.5578 13.9L14.5576 13.9005C14.0614 14.7972 13.5482 15.7246 13.3378 17.2913C13.3323 17.332 13.3277 17.3791 13.3228 17.4294L13.3228 17.4295Z" fill="#999999"/>
<path d="M0 9.18782H2.25365V10.3274H0V9.18782Z" fill="#999999"/>
<path d="M16.7464 9.18782H19V10.3274H16.7464V9.18782Z" fill="#999999"/>
<path d="M14.2153 4.10722L15.7871 2.49282L16.573 3.30002L15.0012 4.91442L14.2153 4.10722Z" fill="#999999"/>
<path d="M3.99878 4.91442L2.42701 3.30002L3.2129 2.49282L4.78467 4.10722L3.99878 4.91442Z" fill="#999999"/>
<path d="M8.94526 0H10.0547V2.31476H8.94526V0Z" fill="#999999"/>
</svg>
