<svg width="16" height="23" viewBox="0 0 16 23" fill="none" xmlns="http://www.w3.org/2000/svg">
<path d="M4.16078 23C1.5015 14.5751 7.12049 11.499 7.12049 11.499C6.72734 15.9946 9.38453 19.497 9.38453 19.497C10.3618 19.2135 12.2271 17.8885 12.2271 17.8885C12.2271 19.497 11.2429 22.998 11.2429 22.998C11.2429 22.998 14.6884 20.4366 15.7731 16.1822C16.8563 11.9279 13.7098 7.65684 13.7098 7.65684C13.8994 10.668 12.8398 13.6295 10.764 15.892C10.8679 15.7768 10.955 15.6488 11.0219 15.51C11.3948 14.7929 11.9936 12.9292 11.643 8.61319C11.1495 2.55474 5.43988 0 5.43988 0C5.932 3.69137 4.45633 4.54183 0.999618 11.5486C-2.45709 18.554 4.16078 23 4.16078 23Z" fill="#999999"/>
</svg>
