<?xml version="1.0" encoding="utf-8"?>
<!-- Generator: Adobe Illustrator 22.1.0, SVG Export Plug-In . SVG Version: 6.00 Build 0)  -->
<svg version="1.1" id="Layer_1" xmlns="http://www.w3.org/2000/svg" xmlns:xlink="http://www.w3.org/1999/xlink" x="0px" y="0px"
	 viewBox="0 0 477.6 482" style="enable-background:new 0 0 477.6 482;" xml:space="preserve">
<style type="text/css">
	.st0{fill:#F3530F;}
</style>
<title>Artboard 22</title>
<path class="st0" d="M257.2,403.9V386c0-4.1,3.3-7.4,7.4-7.4s7.4,3.3,7.4,7.4v18.6l0.6,1.2c2.1,4.2,10.7,10.5,28.6,15.5l0.1,0
	c20.7,5.4,42,8.1,63.3,8.1c1.1,0,2.1,0,3.2,0c22.4,0.3,44.7-2.5,66.4-8.1l0.1,0c17.9-5.1,26.5-11.3,28.6-15.5l0.5-1.1l0-18.8
	c0-4.1,3.3-7.4,7.4-7.4s7.4,3.3,7.4,7.4l-0.2,17.9c0,12.6-12.2,23.1-35.2,30.4c-23,6.6-46.8,9.9-70.7,9.9c-1.5,0-2.9,0-4.4,0l-0.1,0
	l-0.1,0c-1.4,0-2.9,0-4.3,0c-23.9,0-47.7-3.3-70.7-9.9C269.4,426.8,257.2,416.3,257.2,403.9z M434.1,384.5
	C434.1,384.5,434.1,384.5,434.1,384.5L434.1,384.5L434.1,384.5z M49.6,421.2L49.6,421.2L49.6,421.2L49.6,421.2z M470.7,322.1
	c-4.1,0-7.4,3.3-7.4,7.4l0,18.8l-0.5,1.1c-2.1,4.1-10.7,10.4-28.6,15.5l-0.1,0c-21.7,5.6-44.1,8.3-66.5,8c-1.1,0-2.2,0-3.2,0
	c-21.3,0-42.5-2.7-63.2-8l-0.1,0c-17.9-5-26.5-11.2-28.6-15.5l-0.6-1.2v-18.6c0-4.1-3.3-7.4-7.4-7.4s-7.4,3.3-7.4,7.4v17.8
	c0,12.4,12.2,22.9,35.2,30.4c23,6.6,46.8,9.9,70.7,9.9c1.4,0,2.9,0,4.3,0l0.1,0l0.1,0c1.4,0,2.9,0,4.3,0c23.9,0,47.7-3.3,70.7-9.9
	c23-7.2,35.2-17.8,35.2-30.4l0.2-17.8C478.1,325.4,474.8,322.1,470.7,322.1z M314,101.5h13.6l-2.3-69.8c0-0.2,0-0.5,0-0.7
	c0-12.2,10-22.2,22.2-22.2h40.5c6,0,11.8,2.5,15.9,6.9l0.1,0.1c4.2,4.3,6.4,10.2,6.2,16.2L408,96.2l-0.2,5.4h14c5,0,9.8,1.8,13.6,5
	c4.4,3.7,7.1,8.8,7.6,14.5s-1.2,11.2-4.9,15.6l-47.2,56.5c-1.1,1.3-2.4,2.6-3.7,3.7c-5.3,4.5-12.1,6.9-19.1,6.9
	c-8.8,0-17.2-3.9-22.8-10.7l-47.4-56.7c-3.2-3.8-5-8.6-5-13.6c0-5.7,2.2-11.1,6.2-15.1C302.9,103.8,308.3,101.5,314,101.5z
	 M313.8,116.3c-1.6,0-3.2,0.6-4.4,1.6c-1.4,1.2-2.2,2.8-2.3,4.6c-0.1,1.8,0.4,3.5,1.6,4.8L356,184c0.7,0.8,1.4,1.5,2.2,2.2
	c2.7,2.2,6,3.3,9.4,3.3c4.5,0,8.8-2,11.6-5.5l47.4-56.6c1-1.2,1.6-2.8,1.6-4.4c0-3.7-3-6.7-6.7-6.7h-21.4c-0.1,0-0.2,0-0.2,0
	c-2-0.1-3.8-0.9-5.1-2.3c-1.3-1.4-2-3.3-2-5.2l2.7-77.4c0-0.1,0-0.2,0-0.3c0-4.1-3.4-7.5-7.5-7.5h-40.5l-0.5,0l-0.2,0
	c-1.8,0.2-3.4,1-4.7,2.3c-1.4,1.5-2.1,3.4-2.1,5.4l2.7,77.4c0,0.1,0,0.3,0,0.4c-0.1,4-3.4,7.2-7.3,7.2L313.8,116.3z M257.4,262.4
	c0-12.6,12.2-23.1,35.2-30.4c23-6.6,46.8-9.9,70.7-9.9c0,0,0,0,0,0c1.4,0,2.9,0,4.3,0l0.1,0l0.1,0c1.4,0,2.9,0,4.3,0
	c23.9,0,47.7,3.3,70.7,9.9c23,7.5,35.2,18,35.2,30.4v28.3c0,12.6-12.2,23.1-35.2,30.4c-23,6.6-46.8,9.9-70.7,9.9c-1.4,0-2.9,0-4.3,0
	l-0.1,0l-0.1,0c-1.4,0-2.9,0-4.3,0c-23.9,0-47.7-3.3-70.7-9.9c-23-7.5-35.2-18-35.2-30.4V262.4z M272,291.5l0.6,1.2
	c2.1,4.2,10.7,10.5,28.6,15.5l0.1,0c20.6,5.3,41.7,8,63,8c1.1,0,2.3,0,3.4,0c22.4,0.3,44.7-2.4,66.5-8l0.1,0
	c17.9-5.1,26.5-11.3,28.6-15.5l0.5-1.1l0-30.1l-0.6-1.2c-2.1-4.2-10.7-10.5-28.6-15.5l-0.1,0c-21.7-5.6-44-8.3-66.4-8
	c-22.4-0.3-44.7,2.4-66.5,8l-0.1,0c-17.9,5.1-26.5,11.3-28.6,15.5l-0.5,1.1L272,291.5z M182.3,307.9L182.3,307.9L182.3,307.9
	L182.3,307.9z M49.5,364.5L49.5,364.5L49.5,364.5L49.5,364.5z M226.4,205.8v28.3c0,12.6-12.2,23.1-35.2,30.4
	c-23,6.6-46.8,9.9-70.7,9.9c-1.4,0-2.9,0-4.3,0l-0.1,0l-0.1,0c-1.4,0-2.9,0-4.3,0c-23.9,0-47.7-3.3-70.7-9.9
	c-23-7.5-35.2-18-35.2-30.4v-28.3c0-12.6,12.2-23.1,35.2-30.4c23-6.6,46.8-9.9,70.7-9.9c0,0,0,0,0,0c1.4,0,2.8,0,4.2,0l0.1,0l0.1,0
	c25.4-0.4,50.8,2.9,75.2,9.9C214.3,182.9,226.4,193.4,226.4,205.8z M211.7,204.8l-0.7-1.2c-2.3-4.1-11-10.3-28.5-15.3l-0.1,0
	c-21.7-5.6-44.1-8.3-66.5-8c-22.4-0.3-44.8,2.4-66.5,8l-0.1,0c-17.9,5.1-26.5,11.3-28.6,15.5l-0.5,1.1l0,29.9l0.6,1.2
	c2.1,4.2,10.7,10.5,28.6,15.5l0.1,0c20.9,5.5,42.5,8.3,64.1,8.3c0.8,0,1.6,0,2.3,0c1.1,0,2.1,0,3.2,0c21.4,0,42.7-2.7,63.3-8.1
	l0.1,0c17.9-5.1,26.5-11.3,28.6-15.5l0.5-1.1L211.7,204.8z M40.8,434.3c23,6.6,46.8,9.9,70.7,9.9c1.4,0,2.9,0,4.3,0l0.1,0l0.1,0
	c1.4,0,2.9,0,4.3,0c23.9,0,47.7-3.3,70.7-9.9c30.8-10.1,35.4-23.4,35.4-30.4V386c0-4.1-3.3-7.4-7.4-7.4s-7.4,3.3-7.4,7.4l0,18.8
	l-0.5,1.1c-2.1,4.1-10.7,10.4-28.6,15.5l-0.1,0c-21.7,5.6-44.1,8.3-66.6,8.1c-1.1,0-2.2,0-3.2,0c-21.3,0-42.5-2.7-63.2-8l-0.1,0
	c-17.9-5-26.5-11.2-28.6-15.5l-0.6-1.2V386c0-4.1-3.3-7.4-7.4-7.4S5.5,382,5.5,386l0.1,17.8C5.6,416.3,17.8,426.8,40.8,434.3z
	 M49.5,188.6L49.5,188.6L49.5,188.6L49.5,188.6z M49.5,308L49.5,308L49.5,308L49.5,308z M40.8,321.1c23,6.6,46.8,9.9,70.7,9.9
	c1.4,0,2.9,0,4.3,0l0.1,0l0.1,0c1.4,0,2.9,0,4.3,0c23.9,0,47.7-3.3,70.7-9.9c23-7.2,35.2-17.8,35.2-30.4v-17.8
	c0-4.1-3.3-7.4-7.4-7.4s-7.4,3.3-7.4,7.4l0,18.8l-0.5,1.1c-2.1,4.1-10.7,10.4-28.6,15.5l-0.1,0c-21.7,5.6-44.1,8.3-66.5,8
	c-1.1,0-2.2,0-3.2,0c-21.3,0-42.5-2.7-63.2-8l-0.1,0c-17.9-5-26.5-11.2-28.6-15.5l-0.6-1.2v-18.6c0-4.1-3.3-7.4-7.4-7.4
	c-4.1,0-7.4,3.3-7.4,7.4l0.2,17.7C5.6,303.1,17.8,313.6,40.8,321.1z M40.8,377.6c23,6.6,46.8,9.9,70.7,9.9c1.4,0,2.9,0,4.3,0l0.1,0
	l0.1,0c1.4,0,2.9,0,4.3,0c23.9,0,47.7-3.3,70.7-9.9c23-7.2,35.2-17.8,35.2-30.4v-17.8c0-4.1-3.3-7.4-7.4-7.4s-7.4,3.3-7.4,7.4
	l0,18.8l-0.5,1.1c-2.1,4.1-10.7,10.4-28.6,15.5l-0.1,0c-21.7,5.6-44.1,8.3-66.5,8c-1.1,0-2.2,0-3.2,0c-21.3,0-42.5-2.7-63.2-8
	l-0.1,0c-17.9-5-26.5-11.2-28.6-15.5l-0.6-1.2v-18.6c0-4.1-3.3-7.4-7.4-7.4c-4.1,0-7.4,3.3-7.4,7.4l0.2,17.7
	C5.6,359.6,17.8,370.1,40.8,377.6z"/>
</svg>
