<?xml version="1.0" encoding="UTF-8" standalone="no"?>
<svg
   xmlns:dc="http://purl.org/dc/elements/1.1/"
   xmlns:cc="http://creativecommons.org/ns#"
   xmlns:rdf="http://www.w3.org/1999/02/22-rdf-syntax-ns#"
   xmlns:svg="http://www.w3.org/2000/svg"
   xmlns="http://www.w3.org/2000/svg"
   xmlns:sodipodi="http://sodipodi.sourceforge.net/DTD/sodipodi-0.dtd"
   xmlns:inkscape="http://www.inkscape.org/namespaces/inkscape"
   width="30.733339"
   height="94.029686"
   viewBox="0 0 30.733339 94.029686"
   version="1.1"
   id="svg11"
   sodipodi:docname="dis-shit.svg"
   inkscape:version="0.92.1 r15371">
  <sodipodi:namedview
     pagecolor="#ffffff"
     bordercolor="#666666"
     borderopacity="1"
     objecttolerance="10"
     gridtolerance="10"
     guidetolerance="10"
     inkscape:pageopacity="0"
     inkscape:pageshadow="2"
     inkscape:window-width="1600"
     inkscape:window-height="837"
     id="namedview3687"
     showgrid="false"
     inkscape:zoom="56.833115"
     inkscape:cx="2.4164342"
     inkscape:cy="-0.049159363"
     inkscape:window-x="-8"
     inkscape:window-y="-8"
     inkscape:window-maximized="1"
     inkscape:current-layer="svg11" />
  <defs
     id="defs3">
    <path
       id="v6i8a"
       d="m 401,2630 a 50,50 0 0 1 50,-50 h 460 a 50,50 0 0 1 50,50 v 23 c 0.1,51.83 30,55.2 30,55.2 0,0 -29.9,3.37 -30,55.2 v 26.6 a 50,50 0 0 1 -50,50 H 451 a 50,50 0 0 1 -50,-50 z" />
  </defs>
  <metadata
     id="metadata843">
    <rdf:RDF>
      <cc:Work
         rdf:about="">
        <dc:title />
        <dc:format>image/svg+xml</dc:format>
        <dc:type
           rdf:resource="http://purl.org/dc/dcmitype/StillImage" />
      </cc:Work>
    </rdf:RDF>
  </metadata>
  <path
     style="fill:none;stroke:#000000;stroke-width:1px;stroke-linecap:butt;stroke-linejoin:miter;stroke-opacity:1"
     d="m -1358.3873,2614.3295 a 50,50 0 0 1 50,-50 h 460 a 50,50 0 0 1 50,50 v 23 c 0.1,51.83 30,55.2 30,55.2 0,0 -29.9,3.37 -30,55.2 v 26.6 a 50,50 0 0 1 -50,50 h -460 a 50,50 0 0 1 -50,-50 z"
     id="path1969" />
  <path
     style="opacity:0.67900002;fill:#999999;fill-opacity:1;stroke:#ffffff;stroke-width:0;stroke-linecap:round;stroke-miterlimit:4;stroke-dasharray:none;stroke-opacity:1"
     d="M 0.01371716,1.167062 V 93.042457 C 0.02387959,77.1134 10.768007,50.56845 29.727139,48.122537 c 0,0 0.02032,-0.304281 -0.01016,-0.731108 l -0.02947,-0.456005 C 12.19278,42.07781 0.03891998,20.648206 0.01077005,1.167062 Z m 0,91.875395 v 0.33248 h 0.01727613 c 0,-0.11083 -0.01219492,-0.22165 -0.01727613,-0.33248 z"
     id="rect2123-3"
     inkscape:connector-curvature="0" />
  <path
     style="opacity:0.67900002;fill:#ffffff;fill-opacity:0;stroke:#ff6600;stroke-width:2;stroke-linecap:round;stroke-miterlimit:4;stroke-dasharray:none;stroke-opacity:1"
     d="m 1.0001089,93.015442 c 0.01,-15.929057 10.0710361,-42.446992 28.7271361,-44.892905 0,0 0.02,-0.304281 -0.01,-0.731108 l -0.029,-0.456005 C 12.473145,42.07781 1.0484134,20.495387 1.0207134,1.0142425"
     id="rect2123" />
</svg>
