<svg xmlns="http://www.w3.org/2000/svg" xmlns:xlink="http://www.w3.org/1999/xlink" width="15" height="18" viewBox="0 0 15 18"><defs><path id="a" d="M555.06 151.56l4.1 4.1c.2.15.28.38.25.62v8.95c0 .36-.3.65-.65.65h-10.03a.65.65 0 0 1-.65-.65v-13.26c0-.36.29-.65.65-.65h5.72l.1-.01c.2 0 .39.09.51.25zm-5.69 1.05v11.98h8.74v-7.77h-3.45a.65.65 0 0 1-.56-.18.65.65 0 0 1-.2-.57v-3.46zm5.83 2.92h2l-2-2z"/><path id="b" d="M558.3 148.33l4.1 4.1c.18.14.27.39.24.62V162c0 .17-.07.34-.2.46a.66.66 0 0 1-.45.2h-1.78v-1.3h1.13v-7.77h-2.64l-1.57-1.56v-2.65h-4.53v1.14h-1.29v-1.78c0-.17.07-.34.19-.46a.66.66 0 0 1 .46-.19h5.72l.1-.01c.2 0 .39.1.51.25zm.13 3.97h2l-2-2z"/></defs><use fill="#9b9b9b" xlink:href="#a" transform="translate(-548 -148)"/><use fill="#9b9b9b" xlink:href="#b" transform="translate(-548 -148)"/></svg>