<svg xmlns="http://www.w3.org/2000/svg" xmlns:xlink="http://www.w3.org/1999/xlink" width="18" height="12" viewBox="0 0 18 12"><defs><path id="a" d="M507.36 160.06a8.28 8.28 0 0 1-4.36 1.22c-1.57 0-3.02-.41-4.36-1.22a10.36 10.36 0 0 1-3.35-3.28 9.87 9.87 0 0 1 3.82-3.54c-.4.7-.61 1.45-.61 2.26 0 1.23.44 2.3 1.32 3.17A4.34 4.34 0 0 0 503 160c1.24 0 2.3-.44 3.18-1.32a4.33 4.33 0 0 0 1.32-3.17c0-.81-.2-1.57-.61-2.26a9.87 9.87 0 0 1 3.82 3.54c-.89 1.37-2 2.46-3.35 3.28zm-4.02-6.8c-.1.1-.2.15-.34.15-.58 0-1.07.2-1.48.61-.4.4-.6.9-.6 1.48 0 .13-.06.24-.15.34-.1.1-.2.14-.34.14a.47.47 0 0 1-.34-.14.46.46 0 0 1-.14-.34c0-.84.3-1.56.9-2.16.6-.6 1.31-.9 2.15-.9.13 0 .25.05.34.15.1.09.14.2.14.34 0 .13-.04.24-.14.34zm8.46 2.83a10.72 10.72 0 0 0-3.78-3.7 9.76 9.76 0 0 0-10.04 0 10.72 10.72 0 0 0-3.78 3.7c-.13.23-.2.46-.2.69 0 .23.07.46.2.7.94 1.53 2.2 2.76 3.78 3.69a9.76 9.76 0 0 0 10.04 0 10.65 10.65 0 0 0 3.78-3.7c.13-.23.2-.46.2-.69 0-.23-.07-.46-.2-.7z"/></defs><use fill="#9b9b9b" xlink:href="#a" transform="translate(-494 -151)"/></svg>