<?xml version="1.0" encoding="utf-8"?>
<!-- Generator: Adobe Illustrator 22.1.0, SVG Export Plug-In . SVG Version: 6.00 Build 0)  -->
<svg version="1.1" id="Capa_1" xmlns="http://www.w3.org/2000/svg" xmlns:xlink="http://www.w3.org/1999/xlink" x="0px" y="0px"
	 viewBox="0 0 496.7 361.2" style="enable-background:new 0 0 496.7 361.2;" xml:space="preserve">
<style type="text/css">
	.st0{fill:#F3530F;}
</style>
<path class="st0" d="M490.2,4.2c-0.2-0.2-0.4-0.3-0.6-0.5c-3-2.4-6.8-3.7-10.7-3.7l0,0l0,0h-265c-3.9,0-7.7,1.3-10.7,3.7
	c-0.2,0.2-0.4,0.3-0.6,0.5c-4.1,3.3-6.4,8.3-6.4,13.5V105H17.7C7.9,105,0,113,0,122.7v176.7c0,9.8,8,17.7,17.7,17.7h47
	c2.9,12.2,12.6,23.1,27.6,31.1c15.7,8.4,36.2,13,57.9,13c21.7,0,42.2-4.6,57.9-13c15-8,24.7-19,27.6-31.1h47c9.8,0,17.7-8,17.7-17.7
	v-50.8c13.6,5.1,29.5,7.7,46.1,7.7c21.7,0,42.2-4.6,57.9-13c15-8,24.7-19,27.6-31.1h47c9.8,0,17.7-8,17.7-17.7V17.8
	C496.6,12.5,494.2,7.6,490.2,4.2z M383.7,68.7V15.8h79.5l-76.7,52.9L383.7,68.7L383.7,68.7z M480.8,23v45.7h-66.3L480.8,23z
	 M229.5,15.9H309v52.9h-2.9L229.5,15.9z M278.3,68.7H212V23L278.3,68.7z M104.1,120.9h92.1v73.5v70.7c-9.8-3.7-20.1-6-30.5-7.1
	c-5.1-0.5-10.4-0.8-15.6-0.8s-10.4,0.3-15.6,0.8c-10.4,1-20.7,3.4-30.5,7.1V120.9H104.1z M64.7,301.3H17.6c-1.1,0-1.9-0.9-1.9-1.9
	V122.8c0-1,0.9-1.9,1.9-1.9h70.6v151.8C75.7,280.5,67.4,290.5,64.7,301.3z M200.5,334.2c-13.5,7.2-31.8,11.3-50.3,11.3
	s-36.9-4.1-50.3-11.3c-12.9-6.9-20.3-16-20.3-25c0-7.8,5.6-15.7,15.6-22.2c10.6-6.9,25.2-11.6,41.1-13.3c4.6-0.5,9.2-0.7,13.9-0.7
	c4.6,0,9.3,0.2,13.9,0.7c15.9,1.7,30.5,6.4,41.1,13.3c10.1,6.5,15.6,14.4,15.6,22.2C220.7,318.2,213.4,327.3,200.5,334.2z
	 M235.5,301.3c-2.7-10.8-10.9-20.8-23.5-28.6v-64.4v-87.4h70.6c1,0,1.9,0.9,1.9,1.9v7.9v9.8v0.3v11.9v16.5V181v46.4v11.8v60.2
	c0,1-0.9,1.9-1.9,1.9H235.5z M282.6,105H212V84.5h104.9c4.4,0,7.9-3.5,7.9-7.9V15.8h43.1v60.8c0,4.4,3.5,7.9,7.9,7.9h104.9v43.1
	H375.8c-4.4,0-7.9,3.5-7.9,7.9v18.2c-7.1-1-14.3-1.6-21.5-1.6s-14.4,0.5-21.5,1.6v-18.2c0-4.4-3.5-7.9-7.9-7.9h-16.6v-4.9
	C300.3,113,292.4,105.1,282.6,105z M480.8,143.4v45.7l-66.3-45.7H480.8z M300.3,159.9v-12.5l5.8-4h2.9v13.7
	C306.1,157.9,303.2,158.9,300.3,159.9z M396.8,229.2c-13.5,7.2-31.8,11.3-50.3,11.3c-16.8,0-33-3.3-46.1-9.2v-54.1
	c13-5.9,29.3-9.2,46.1-9.2c18.5,0,36.9,4.1,50.3,11.3c12.9,6.9,20.3,16,20.3,25S409.6,222.3,396.8,229.2z M431.9,196.3
	c-2.1-8.6-7.5-16.6-16-23.5c-8.3-6.8-19.4-12.2-32.2-15.8v-13.6h2.9l76.7,52.9H431.9z M483.8,17.8c0-0.1,0-0.2,0-0.3
	C483.8,17.6,483.8,17.7,483.8,17.8L483.8,17.8z M145.2,289.6c0,2.7-2.2,4.9-4.9,4.9h-14.7v9.8h9.8c2.7,0,4.9,2.2,4.9,4.9
	c0,2.7-2.2,4.9-4.9,4.9h-9.8v14.7c0,2.7-2.2,4.9-4.9,4.9c-2.7,0-4.9-2.2-4.9-4.9v-39.3c0-1.3,0.5-2.6,1.4-3.5s2.2-1.4,3.5-1.4h19.6
	C143,284.7,145.2,286.9,145.2,289.6z M174.1,313.4c6.1-1.9,10.3-7.6,10.4-14c0-8.1-6.6-14.7-14.7-14.7h-14.7c-1.3,0-2.5,0.5-3.5,1.4
	c-0.9,0.9-1.4,2.2-1.4,3.5v39.3c0,2.7,2.2,4.9,4.9,4.9s4.9-2.2,4.9-4.9v-14.7h2.5l13.2,17.7c1.6,2.2,4.7,2.6,6.9,1s2.6-4.7,1-6.9
	L174.1,313.4z M169.8,304.3h-9.9v-9.8h9.8c2.7,0,4.9,2.2,4.9,4.9S172.5,304.3,169.8,304.3z M381.2,184.3v38.1c0,3.3-2.6,6-5.8,6
	c-2,0-3.9-1.1-4.9-2.9l-12.2-20.7c-1.2-2.1-2.3-4-3.3-5.8c0,2.5,0.1,5.1,0.1,8.2v16.5c0,2.6-2,4.7-4.5,4.7h-0.7
	c-2.5,0-4.5-2.1-4.5-4.7v-37.8c0-3.5,2.7-6.3,6.1-6.3c2.1,0,4.1,1.1,5.2,3l12.2,20.5c1,1.6,1.9,3.2,2.8,4.8
	c-0.1-2.4-0.1-4.9-0.1-7.5v-16.1c0-2.6,2-4.7,4.5-4.7h0.6C379.2,179.7,381.2,181.8,381.2,184.3z M336.1,218.8h-14.7l0,0V209h9.8
	c2.7,0,4.9-2.2,4.9-4.9s-2.2-4.9-4.9-4.9h-9.8v-9.8h14.7c2.7,0,4.9-2.2,4.9-4.9c0-2.7-2.2-4.9-4.9-4.9h-19.6c-1.3,0-2.5,0.5-3.5,1.4
	c-0.9,0.9-1.4,2.2-1.4,3.5v39.3l0,0c0,0.2,0,0.3,0,0.5c0,0.1,0,0.2,0.1,0.4v0.1c0,0.1,0.1,0.3,0.1,0.4l0,0c0,0.1,0.1,0.3,0.1,0.4
	l0,0c0.1,0.1,0.1,0.2,0.2,0.4c0,0,0,0,0,0.1c0.1,0.1,0.1,0.2,0.2,0.3c0,0,0,0.1,0.1,0.1c0.1,0.1,0.1,0.2,0.2,0.3l0.1,0.1
	c0.1,0.1,0.2,0.2,0.3,0.3l0,0l0,0c0.1,0.1,0.2,0.2,0.3,0.3l0.1,0.1c0.1,0.1,0.2,0.1,0.3,0.2c0,0,0.1,0,0.1,0.1
	c0.1,0.1,0.2,0.1,0.3,0.2h0.1c0.1,0.1,0.2,0.1,0.3,0.2h0.1c0.1,0,0.2,0.1,0.4,0.1h0.1c0.1,0,0.2,0.1,0.4,0.1c0.1,0,0.1,0,0.2,0
	s0.2,0,0.3,0c0.2,0,0.3,0,0.5,0l0,0l0,0l0,0h19.6c2.7,0,4.9-2.2,4.9-4.9C341,221,338.8,218.8,336.1,218.8z"/>
</svg>
