<svg width="56" height="41" viewBox="0 0 56 41" fill="none" xmlns="http://www.w3.org/2000/svg">
<path d="M54.1474 30.0089L44.6142 20.4757C43.8274 19.6891 42.7815 19.2553 41.6689 19.2544C41.6214 19.2544 41.5738 19.2543 41.5264 19.2543V16.9684C42.0701 16.7055 42.4468 16.15 42.4468 15.5068V9.00971C42.4468 8.11409 41.7181 7.38544 40.8225 7.38544H32.6563V2.98259C32.6563 1.90613 32.0998 0.941967 31.1674 0.403793C30.2352 -0.134489 29.1218 -0.134489 28.1896 0.403793L22.7439 3.54794C21.7671 3.154 20.6808 3.15325 19.7029 3.54794L14.2572 0.403793C13.3251 -0.134489 12.2117 -0.134706 11.2794 0.403793C10.3471 0.942076 9.79044 1.90613 9.79044 2.98259V7.38533H1.62427C0.728647 7.38533 0 8.11398 0 9.0096V15.5067C0 16.4023 0.728647 17.1309 1.62427 17.1309H16.3505V38.2464H3.35682C2.90961 38.2453 2.54577 37.8815 2.54469 37.4343V19.5673C2.54469 19.1201 2.18085 18.7552 1.73255 18.7552C1.28534 18.7552 0.921502 19.1189 0.920419 19.5651C0.920419 19.5663 0.920419 19.5663 0.920419 19.5673V37.4343C0.920419 38.0851 1.1738 38.6969 1.63401 39.1571C2.09422 39.6173 2.70603 39.8707 3.35682 39.8707H16.5702C16.8516 40.3554 17.3751 40.6828 17.9748 40.6828H24.4719C25.0716 40.6828 25.595 40.3554 25.8764 39.8707H39.0899C40.4332 39.8707 41.5263 38.7777 41.5263 37.4343V36.7814L44.4505 39.7056C45.2853 40.5402 46.3951 41 47.5755 41C48.7559 41 49.8657 40.5402 50.7005 39.7056L54.1473 36.2588C54.9819 35.424 55.4416 34.3143 55.4416 33.1339C55.4417 31.9534 54.982 30.8437 54.1474 30.0089ZM40.8224 9.00949V15.5066H26.0961V9.00949H40.8224ZM39.902 17.1308V19.252C38.9562 19.2508 38.1085 19.2494 37.5558 19.2507C36.8902 19.2522 36.2428 19.4347 35.6646 19.7744C35.1864 18.9683 34.8832 18.0714 34.7718 17.1308H39.902ZM20.0552 5.17438C20.7999 4.76463 21.6892 4.78845 22.3925 5.17459C22.9504 5.48082 23.3574 5.98586 23.5449 6.57309H18.9043C19.0941 5.98824 19.5031 5.47801 20.0552 5.17438ZM16.3505 15.5066H1.62427V9.00949H16.3505V15.5066ZM17.4133 5.9079L14.2572 4.08568C13.8688 3.86132 13.3721 3.9944 13.1478 4.38293C12.9235 4.77134 13.0566 5.26804 13.445 5.4923L16.6102 7.31971C16.5963 7.34126 16.5831 7.36313 16.5702 7.38533H11.4147V2.98248C11.4147 2.49314 11.6678 2.05502 12.0915 1.8103C12.5153 1.56558 13.0212 1.56558 13.445 1.8103L18.228 4.57177C17.871 4.96095 17.595 5.41455 17.4133 5.9079ZM24.4719 8.19736V15.5066H20.3564C19.9091 15.5066 19.5443 15.8703 19.5443 16.3187C19.5443 16.767 19.9091 17.1308 20.3564 17.1308H24.4719V39.0585H17.9748L17.9752 8.19736H24.47C24.4707 8.19736 24.4712 8.19736 24.4719 8.19736ZM25.8763 7.38522C25.8634 7.36303 25.8503 7.34115 25.8364 7.3196L29.0016 5.49219C29.3901 5.26794 29.5231 4.77123 29.2989 4.38282C29.0746 3.99429 28.5779 3.86132 28.1895 4.08558L25.0317 5.90876C24.8496 5.4152 24.5738 4.96095 24.2182 4.5721L29.0016 1.8103C29.4255 1.56558 29.9316 1.56558 30.3552 1.8103C30.779 2.05502 31.032 2.49325 31.032 2.98248V7.38522H25.8763ZM39.0899 38.2464H26.0961V17.1309H33.1367C33.2649 18.4783 33.7128 19.7573 34.4409 20.8812C33.9572 21.5394 33.6944 22.3135 33.6924 23.1141C33.6924 23.1142 33.6959 23.1142 33.6959 23.1143C33.6938 24.0163 33.6948 25.7594 33.6959 27.2271C33.6969 28.3396 34.1306 29.3857 34.9172 30.1725L39.9019 35.1572V37.4343H39.902C39.902 37.8821 39.5377 38.2464 39.0899 38.2464ZM52.9987 35.1102L49.5519 38.557C49.024 39.085 48.3221 39.3758 47.5755 39.3758C46.8288 39.3758 46.1269 39.085 45.5991 38.557L41.2889 34.2468C41.2886 34.2466 41.2882 34.2463 41.288 34.246L36.066 29.0241C35.5857 28.5436 35.3173 27.905 35.3168 27.2259C35.3157 25.753 35.3147 24.0175 35.3168 23.1181C35.3176 22.8113 35.3899 22.5095 35.5226 22.2275C35.5363 22.2412 35.5488 22.2557 35.5626 22.2694L36.6163 23.3231C36.7749 23.4816 36.9829 23.5609 37.1907 23.5609C37.3985 23.5609 37.6064 23.4816 37.765 23.3231C38.0822 23.0058 38.0822 22.4917 37.765 22.1745L36.7113 21.1208C36.6979 21.1074 36.6854 21.0932 36.6721 21.0796C36.9534 20.9478 37.2541 20.8759 37.5597 20.8752C38.365 20.8731 40.5809 20.8779 41.6678 20.8787C42.347 20.8792 42.9855 21.1441 43.4657 21.6244L52.9989 31.1576C53.5268 31.6855 53.8176 32.3873 53.8176 33.134C53.8174 33.8805 53.5266 34.5823 52.9987 35.1102Z" fill="#666666"/>
</svg>
