<svg id="Capa_1" data-name="Capa 1" xmlns="http://www.w3.org/2000/svg" viewBox="0 0 58 58"><defs><style>.cls-1{fill:#f3530f;}</style></defs><title>all</title><path class="cls-1" d="M29.69,37.86h-21a2.51,2.51,0,0,1-2.5-2.5V17.43a2.51,2.51,0,0,1,2.5-2.5H29.69a2.5,2.5,0,0,1,2.5,2.5V35.36A2.5,2.5,0,0,1,29.69,37.86Zm-20.55-3H29.19V17.93h-20Z"/><path class="cls-1" d="M50.63,18.88h-14a1.5,1.5,0,0,1,0-3h14a1.5,1.5,0,1,1,0,3Z"/><path class="cls-1" d="M50.63,27.87h-14a1.5,1.5,0,0,1,0-3h14a1.5,1.5,0,0,1,0,3Z"/><path class="cls-1" d="M50.63,36.86h-14a1.5,1.5,0,0,1,0-3h14a1.5,1.5,0,1,1,0,3Z"/><path class="cls-1" d="M38.62,6.79l-1.49.09V2.32A1.51,1.51,0,0,0,35.63.8a1.53,1.53,0,0,0-1.48,1.08h-9v3h9l0,2H31.71a1.64,1.64,0,0,0-1.54,1.62c0,.83.73,1.28,1.56,1.28h6.9a1.5,1.5,0,0,0,1.5-1.5A1.48,1.48,0,0,0,38.62,6.79Z"/><path class="cls-1" d="M25.63,6.76H24.1V1.9h-.05a1.49,1.49,0,0,0-2.89,0l-7,0v3h7V6.76H19.58a1.5,1.5,0,0,0,0,3h6.05a1.5,1.5,0,0,0,0-3Z"/><path class="cls-1" d="M38.33,2.27v2.5H46.2v2H44.68a1.5,1.5,0,0,0,0,3h6a1.5,1.5,0,0,0,0-3H49.2V2.27A1.5,1.5,0,0,0,47.7.77a1.48,1.48,0,0,0-1.4,1H38.24A1.7,1.7,0,0,1,38.33,2.27Z"/><path class="cls-1" d="M53.73,1.85H50.14c0,.18,0,3,0,3l3.48-.1a1.5,1.5,0,0,1,1.5,1.5V41.35a1.5,1.5,0,0,1-1.5,1.5h-49a1.5,1.5,0,0,1-1.5-1.5V6.27a1.51,1.51,0,0,1,1.5-1.5H9.17v2H7.64a1.5,1.5,0,1,0,0,3H13.7a1.5,1.5,0,0,0,0-3H12.17V2.27a1.5,1.5,0,0,0-1.5-1.5A1.51,1.51,0,0,0,9.23,1.86H4.57A4.35,4.35,0,0,0,.16,6.27V41.35a4.51,4.51,0,0,0,4.5,4.5H25.12v12h9.05v-12H53.65a4.51,4.51,0,0,0,4.5-4.5V6.27A4.37,4.37,0,0,0,53.73,1.85Zm-22.56,53H28.12v-9h3.05Z"/></svg>