<svg width="26" height="21" viewBox="0 0 26 21" fill="none" xmlns="http://www.w3.org/2000/svg">
<path d="M5.03402 14.7179H11.7349C11.9862 14.7179 12.1537 14.5504 12.1537 14.2991V10.5298C12.1537 10.2786 11.9862 10.1111 11.7349 10.1111H5.03402C4.78274 10.1111 4.61523 10.2786 4.61523 10.5298V14.2991C4.61519 14.5503 4.78274 14.7179 5.03402 14.7179ZM5.45282 10.9486H11.3161V13.8803H5.45282V10.9486Z" fill="#32609B"/>
<path d="M19.6917 9.27337H23.0422C23.2935 9.27337 23.461 9.10586 23.461 8.85458C23.461 8.6033 23.2935 8.43579 23.0422 8.43579H19.6917C19.4405 8.43579 19.2729 8.6033 19.2729 8.85458C19.2729 9.10586 19.4405 9.27337 19.6917 9.27337Z" fill="#32609B"/>
<path d="M14.6663 9.27337H18.0168C18.2681 9.27337 18.4356 9.10586 18.4356 8.85458C18.4356 8.6033 18.2681 8.43579 18.0168 8.43579H14.6663C14.4151 8.43579 14.2476 8.6033 14.2476 8.85458C14.2476 9.10586 14.4151 9.27337 14.6663 9.27337Z" fill="#32609B"/>
<path d="M17.598 10.9486H23.0425C23.2937 10.9486 23.4613 10.7811 23.4613 10.5298C23.4613 10.2785 23.2937 10.111 23.0425 10.111H17.598C17.3467 10.111 17.1792 10.2785 17.1792 10.5298C17.1792 10.7811 17.3467 10.9486 17.598 10.9486Z" fill="#32609B"/>
<path d="M15.9228 10.111H14.6663C14.4151 10.111 14.2476 10.2785 14.2476 10.5298C14.2476 10.7811 14.4151 10.9486 14.6663 10.9486H15.9228C16.1741 10.9486 16.3416 10.7811 16.3416 10.5298C16.3416 10.2785 16.1741 10.111 15.9228 10.111Z" fill="#32609B"/>
<path d="M24.7515 4.91782C24.4583 4.54089 24.0814 4.33147 23.6207 4.28961L22.6156 4.1678V2.99128V2.1537C22.6156 1.23234 21.8617 0.478485 20.9404 0.478485H1.67521C0.753852 0.478436 0 1.23229 0 2.1537V2.99133V6.3418V15.5555C0 16.312 0.50831 16.9552 1.20013 17.1613C1.17902 18.0085 1.82004 18.744 2.6804 18.8222L22.0293 21C22.0711 21 22.1549 21 22.1968 21C23.0344 21 23.7883 20.3718 23.872 19.5761L25.1284 6.13238C25.1703 5.71354 25.0446 5.25283 24.7515 4.91782ZM0.83763 3.41012H21.778V4.49903V5.92296H0.83763V3.41012ZM1.67521 1.31607H20.9403C21.401 1.31607 21.7779 1.69299 21.7779 2.1537V2.57249H0.83763V2.1537C0.83763 1.69299 1.21456 1.31607 1.67521 1.31607ZM0.83763 15.5555V6.76054H21.778V15.5555C21.778 16.0162 21.4011 16.3931 20.9404 16.3931H1.71712H1.67526C1.21456 16.3931 0.83763 16.0162 0.83763 15.5555ZM24.2908 5.96482L23.0344 19.4085C22.9925 19.8692 22.5737 20.2042 22.113 20.1624L2.80599 17.9846C2.3872 17.9427 2.094 17.6077 2.05214 17.2307H20.9403C21.8617 17.2307 22.6155 16.4769 22.6155 15.5555V6.34175V4.95969L23.5788 5.04346C23.7882 5.04346 23.9976 5.1691 24.1232 5.33661C24.2489 5.50412 24.3327 5.7554 24.2908 5.96482Z" fill="#32609B"/>
</svg>
