<svg width="22" height="25" viewBox="0 0 22 25" fill="none" xmlns="http://www.w3.org/2000/svg">
<path d="M10.1061 18.8165H6.84816C6.62778 18.8165 6.44922 18.9951 6.44922 19.2154V22.4734C6.44922 22.6937 6.62778 22.8723 6.84816 22.8723H10.1061C10.3265 22.8723 10.5051 22.6937 10.5051 22.4734V19.2154C10.5051 18.9951 10.3265 18.8165 10.1061 18.8165ZM9.7072 22.0745H7.24709V19.6144H9.7072V22.0745Z" fill="#32609B"/>
<path d="M14.9601 18.8165H11.7022C11.4818 18.8165 11.3032 18.9951 11.3032 19.2154V22.4734C11.3032 22.6937 11.4818 22.8723 11.7022 22.8723H14.9601C15.1805 22.8723 15.3591 22.6937 15.3591 22.4734V19.2154C15.3591 18.9951 15.1805 18.8165 14.9601 18.8165ZM14.5612 22.0745H12.1011V19.6144H14.5612V22.0745Z" fill="#32609B"/>
<path d="M14.9601 13.9628H11.7022C11.4818 13.9628 11.3032 14.1414 11.3032 14.3617V17.6197C11.3032 17.84 11.4818 18.0186 11.7022 18.0186H14.9601C15.1805 18.0186 15.3591 17.84 15.3591 17.6197V14.3617C15.3591 14.1414 15.1805 13.9628 14.9601 13.9628ZM14.5612 17.2207H12.1011V14.7606H14.5612V17.2207Z" fill="#32609B"/>
<path d="M19.8141 18.8165H16.5562C16.3358 18.8165 16.1572 18.9951 16.1572 19.2154V22.4734C16.1572 22.6937 16.3358 22.8723 16.5562 22.8723H19.8141C20.0345 22.8723 20.2131 22.6937 20.2131 22.4734V19.2154C20.2131 18.9951 20.0345 18.8165 19.8141 18.8165ZM19.4152 22.0745H16.9551V19.6144H19.4152V22.0745Z" fill="#32609B"/>
<path d="M5.25262 10.7713H1.99464C1.77427 10.7713 1.5957 10.9499 1.5957 11.1702V12.7659C1.5957 12.9863 1.77427 13.1649 1.99464 13.1649H5.25262C5.47299 13.1649 5.65155 12.9863 5.65155 12.7659V11.1702C5.65155 10.9499 5.47299 10.7713 5.25262 10.7713ZM4.85368 12.367H2.39358V11.5691H4.85368V12.367Z" fill="#32609B"/>
<path d="M10.1061 13.9628H6.84816C6.62778 13.9628 6.44922 14.1414 6.44922 14.3617V17.6197C6.44922 17.84 6.62778 18.0186 6.84816 18.0186H10.1061C10.3265 18.0186 10.5051 17.84 10.5051 17.6197V14.3617C10.5051 14.1414 10.3265 13.9628 10.1061 13.9628ZM9.7072 17.2207H7.24709V14.7606H9.7072V17.2207Z" fill="#32609B"/>
<path d="M19.8141 13.9628H16.5562C16.3358 13.9628 16.1572 14.1414 16.1572 14.3617V17.6197C16.1572 17.84 16.3358 18.0186 16.5562 18.0186H19.8141C20.0345 18.0186 20.2131 17.84 20.2131 17.6197V14.3617C20.2131 14.1414 20.0345 13.9628 19.8141 13.9628ZM19.4152 17.2207H16.9551V14.7606H19.4152V17.2207Z" fill="#32609B"/>
<path d="M10.1061 10.7713H6.84816C6.62778 10.7713 6.44922 10.9499 6.44922 11.1702V12.7659C6.44922 12.9863 6.62778 13.1649 6.84816 13.1649H10.1061C10.3265 13.1649 10.5051 12.9863 10.5051 12.7659V11.1702C10.5051 10.9499 10.3265 10.7713 10.1061 10.7713ZM9.7072 12.367H7.24709V11.5691H9.7072V12.367Z" fill="#32609B"/>
<path d="M19.8138 0H1.99468C0.894787 0 0 0.894787 0 1.99468V23.0053C0 24.1052 0.894787 25 1.99468 25H19.8138C20.9137 25 21.8085 24.1052 21.8085 23.0053V1.99468C21.8085 0.894787 20.9137 0 19.8138 0ZM21.0106 23.0053C21.0106 23.6653 20.4737 24.2021 19.8138 24.2021H1.99468C1.33479 24.2021 0.797872 23.6653 0.797872 23.0053V1.99468C0.797872 1.33473 1.33479 0.797872 1.99468 0.797872H19.8138C20.4737 0.797872 21.0106 1.33473 21.0106 1.99468V23.0053Z" fill="#32609B"/>
<path d="M5.25262 13.9628H1.99464C1.77427 13.9628 1.5957 14.1414 1.5957 14.3617V22.4734C1.5957 22.6937 1.77427 22.8723 1.99464 22.8723H5.25262C5.47299 22.8723 5.65155 22.6937 5.65155 22.4734V17.5532C5.65155 17.3329 5.47299 17.1543 5.25262 17.1543C5.03225 17.1543 4.85368 17.3329 4.85368 17.5532V22.0745H2.39358V14.7606H4.85368V15.9574C4.85368 16.1778 5.03225 16.3564 5.25262 16.3564C5.47299 16.3564 5.65155 16.1778 5.65155 15.9574V14.3617C5.65155 14.1414 5.47299 13.9628 5.25262 13.9628Z" fill="#32609B"/>
<path d="M19.8138 2.12766H1.99464C1.77427 2.12766 1.5957 2.30627 1.5957 2.52659V9.04255C1.5957 9.26287 1.77427 9.44149 1.99464 9.44149H5.25262C5.47299 9.44149 5.65155 9.26287 5.65155 9.04255C5.65155 8.82223 5.47299 8.64361 5.25262 8.64361H2.39358V2.92553H19.4149V8.64361H6.84836C6.62799 8.64361 6.44943 8.82223 6.44943 9.04255C6.44943 9.26287 6.62799 9.44149 6.84836 9.44149H19.8138C20.0342 9.44149 20.2127 9.26287 20.2127 9.04255V2.52659C20.2127 2.30627 20.0342 2.12766 19.8138 2.12766Z" fill="#32609B"/>
<path d="M3.59034 4.52126H5.18609C5.40646 4.52126 5.58502 4.34264 5.58502 4.12232C5.58502 3.90201 5.40646 3.72339 5.18609 3.72339H3.59034C3.36997 3.72339 3.19141 3.90201 3.19141 4.12232C3.19141 4.34264 3.36997 4.52126 3.59034 4.52126Z" fill="#32609B"/>
<path d="M3.59034 7.71276H5.18609C5.40646 7.71276 5.58502 7.53414 5.58502 7.31382C5.58502 7.0935 5.40646 6.91489 5.18609 6.91489H3.59034C3.36997 6.91489 3.19141 7.0935 3.19141 7.31382C3.19141 7.53414 3.36997 7.71276 3.59034 7.71276Z" fill="#32609B"/>
<path d="M4.78711 6.25C4.78711 6.47032 4.96567 6.64893 5.18605 6.64893C5.40642 6.64893 5.58498 6.47032 5.58498 6.25V5.18617C5.58498 4.96585 5.40642 4.78723 5.18605 4.78723C4.96567 4.78723 4.78711 4.96585 4.78711 5.18617V6.25Z" fill="#32609B"/>
</svg>
