<?xml version="1.0" encoding="UTF-8" standalone="no"?>
<svg
   xmlns:dc="http://purl.org/dc/elements/1.1/"
   xmlns:cc="http://creativecommons.org/ns#"
   xmlns:rdf="http://www.w3.org/1999/02/22-rdf-syntax-ns#"
   xmlns:svg="http://www.w3.org/2000/svg"
   xmlns="http://www.w3.org/2000/svg"
   height="62"
   width="60"
   xml:space="preserve"
   viewBox="0 0 59.999999 61.999997"
   y="0px"
   x="0px"
   id="Capa_1"
   version="1.1"><metadata
   id="metadata13"><rdf:RDF><cc:Work
       rdf:about=""><dc:format>image/svg+xml</dc:format><dc:type
         rdf:resource="http://purl.org/dc/dcmitype/StillImage" /><dc:title>all</dc:title></cc:Work></rdf:RDF></metadata><defs
   id="defs11" />
<style
   id="style2"
   type="text/css">
	.st0{fill:#F3530F;}
</style>
<title
   id="title4">all</title>
<path
   style="fill:#f3530f"
   id="path6"
   d="m 26,36 h -8.9 c -0.8,0 -1.5,-0.7 -1.5,-1.5 0,-0.8 0.7,-1.5 1.5,-1.5 H 26 c 0.8,0 1.5,0.7 1.5,1.5 0,0.8 -0.7,1.5 -1.5,1.5 z m 1.5,3.5 C 27.5,38.7 26.8,38 26,38 h -8.9 c -0.8,0 -1.5,0.7 -1.5,1.5 0,0.8 0.7,1.5 1.5,1.5 H 26 c 0.8,0 1.5,-0.7 1.5,-1.5 z M 60,28.5 c 0,2 -1.2,3.7 -3,4.5 v 23.5 c 0,3 -2.5,5.5 -5.5,5.5 h -16 C 32.5,62 30,59.5 30,56.5 V 52 H 8 C 5.5,52 4,50.1 4,47.6 V 17 C 1.7,16.1 0.2,13.9 0,11.5 0,9.3 1.3,7.3 3.3,6.4 v 0 L 6,0 h 26.9 l 2.6,6.4 v 0 c 2,0.9 3.4,2.9 3.4,5.1 0,2.3 -1,4.7 -3,5.5 v 7 H 55.4 C 58,24 60,26 60,28.5 Z M 6.9,6 H 32 L 30.9,3 H 7.9 Z M 30,46 H 12.5 C 11.1,46 10,44.9 10,43.5 v -21 C 10,21.1 11.1,20 12.5,20 h 15 c 1.4,0 2.5,1.1 2.5,2.5 V 24 c 0.5,0 1,0 1.5,0 H 33 v -7 h -2.7 c -0.8,0 -1.5,-0.7 -1.5,-1.5 0,-0.8 0.7,-1.5 1.5,-1.5 h 3.2 C 34.9,14 36,12.9 36,11.5 36,10.1 34.9,9 33.5,9 H 33 v 2 H 29 V 9 h -4 v 2 H 21 V 9 h -4 v 2 H 13 V 9 H 9 v 2 H 5 V 9 c -1.4,0.1 -2.4,1.4 -2.2,2.8 0.1,1.3 1.3,2.3 2.7,2.1 v 0 h 18.8 c 0.8,0 1.5,0.7 1.5,1.5 0,0.8 -0.7,1.5 -1.5,1.5 H 7 v 30.5 c 0,0.8 0.7,1.5 1.5,1.5 H 30 Z M 30,33 C 28.7,32.6 27.7,31.6 27.2,30.4 27,29.8 27,29.1 27,28.5 V 23 H 13 V 43 H 30 Z M 54,56 H 33 v 0.5 c 0,1.4 1.1,2.5 2.5,2.5 h 16 C 52.9,59 54,57.9 54,56.5 Z M 54,39 H 33 V 53 H 54 Z M 57,28.5 C 57,27.7 56.3,27 55.5,27 c 0,0 0,0 0,0 -24.7,0.1 -24.2,-0.4 -25,0.4 -0.3,0.3 -0.5,0.7 -0.5,1.1 0,0.6 0.3,1.1 0.9,1.3 0.5,0.3 -0.4,0.2 15.6,0.2 v 0 c 0.8,0 1.5,0.7 1.5,1.5 0,0.8 -0.7,1.5 -1.5,1.5 H 33 v 3 h 21 v -3 h -1.6 c -0.8,0 -1.5,-0.7 -1.5,-1.5 0,-0.8 0.7,-1.5 1.5,-1.5 1,0 2,0 3.1,0 0.8,0 1.5,-0.7 1.5,-1.5 z"
   class="st0" />
</svg>