<svg width="15" height="15" viewBox="0 0 15 15" fill="none" xmlns="http://www.w3.org/2000/svg">
<path d="M11.4042 9.92317C10.9142 9.43934 10.3024 9.43934 9.81541 9.92317C9.44396 10.2915 9.0725 10.6598 8.70729 11.0344C8.6074 11.1374 8.52312 11.1593 8.40139 11.0906C8.16103 10.9595 7.90507 10.8534 7.67408 10.7098C6.59718 10.0324 5.69507 9.16153 4.89597 8.18139C4.49955 7.69444 4.14682 7.17316 3.90022 6.58632C3.85028 6.4677 3.85964 6.38967 3.95641 6.2929C4.32787 5.93393 4.68996 5.5656 5.05517 5.19727C5.56397 4.68535 5.56397 4.08602 5.05205 3.57098C4.76175 3.27756 4.47145 2.99039 4.18116 2.69697C3.88149 2.39731 3.58496 2.09452 3.28217 1.79798C2.7921 1.3204 2.18029 1.3204 1.69334 1.80111C1.31877 2.16944 0.959798 2.54714 0.578979 2.90923C0.226252 3.24323 0.0483286 3.65214 0.0108709 4.12972C-0.048437 4.90697 0.141973 5.64052 0.410419 6.35533C0.959798 7.83491 1.79635 9.14905 2.81083 10.3539C4.18116 11.9833 5.81681 13.2725 7.73027 14.2027C8.5918 14.621 9.48454 14.9425 10.4553 14.9956C11.1233 15.033 11.7039 14.8645 12.169 14.3432C12.4874 13.9873 12.8464 13.6627 13.1835 13.3225C13.6829 12.8168 13.686 12.205 13.1897 11.7055C12.5966 11.1093 12.0004 10.5163 11.4042 9.92317Z" fill="#C5C5C5"/>
<path d="M10.808 7.43535L11.9598 7.23869C11.7788 6.18051 11.2793 5.22222 10.5208 4.46058C9.7186 3.65836 8.70412 3.15269 7.58663 2.99661L7.42432 4.15468C8.28896 4.27642 9.07557 4.6666 9.69675 5.28777C10.2836 5.87461 10.6675 6.61752 10.808 7.43535Z" fill="#C5C5C5"/>
<path d="M12.609 2.4285C11.2792 1.09876 9.59674 0.259082 7.73946 0L7.57715 1.15807C9.18158 1.38281 10.6362 2.11011 11.7849 3.25569C12.8743 4.34509 13.5891 5.72166 13.8482 7.23557L15 7.03892C14.6972 5.28465 13.87 3.6927 12.609 2.4285Z" fill="#C5C5C5"/>
</svg>
