<svg id="Capa_1" data-name="Capa 1" xmlns="http://www.w3.org/2000/svg" viewBox="0 0 58 58"><defs><style>.cls-1{fill:#f3530f;}</style></defs><title>all</title><path class="cls-1" d="M56.62,9.88H52.14l0-6.38a1.69,1.69,0,0,0-1.44-1.61h-49A1.62,1.62,0,0,0,.13,3.3l0,36a1.69,1.69,0,0,0,1.53,1.52,1.59,1.59,0,0,0,1.43-1.52l.05-26.46,46,0v8.46a1.49,1.49,0,0,0,3,0l0-2.49h3l0,35H50.7a1.49,1.49,0,1,0,0,3h5.89a1.67,1.67,0,0,0,1.54-1.5V11.46A1.73,1.73,0,0,0,56.62,9.88Zm-1.49,3v3h-3v-3Zm-6-8v5l-37.95.09v-5Zm-41,0v5h-5v-5Z"/><path class="cls-1" d="M44.61,53.88l-36.48,0v-3H50.69a1.56,1.56,0,0,0,1.44-1.48v-23a1.63,1.63,0,0,0-1.45-1.54,1.73,1.73,0,0,0-1.56,1.54l.05,21.43h-46V45c0-.74-.76-1.15-1.5-1.15a1.4,1.4,0,0,0-1.5,1.21V49.4a1.59,1.59,0,0,0,1.49,1.46H5.13l0,4.5a1.61,1.61,0,0,0,1.47,1.51h38a1.68,1.68,0,0,0,1.53-1.51A1.62,1.62,0,0,0,44.61,53.88Z"/><path class="cls-1" d="M5.64,8.89A1.55,1.55,0,1,0,4.11,7.34,1.55,1.55,0,0,0,5.64,8.89Z"/><path class="cls-1" d="M44.2,20.85H8.15a1.5,1.5,0,1,1,0-3H44.2a1.5,1.5,0,0,1,0,3Z"/><path class="cls-1" d="M44.16,27.87h-36a1.5,1.5,0,1,1,0-3H44.16a1.5,1.5,0,0,1,0,3Z"/><path class="cls-1" d="M36,36.85a1.5,1.5,0,0,1,0,3H16.39a1.5,1.5,0,0,1,0-3H36m0-3H16.39a4.5,4.5,0,0,0,0,9H36a4.5,4.5,0,0,0,0-9Z"/></svg>