<svg id="Capa_1" data-name="Capa 1" xmlns="http://www.w3.org/2000/svg" viewBox="0 0 58 58"><defs><style>.cls-1{fill:#f3530f;}</style></defs><title>all</title><path class="cls-1" d="M41.76,10.56H23.5a1.55,1.55,0,0,0-1.37,1.68v9.63a1.57,1.57,0,0,0,1.37,1.69H41.76a1.57,1.57,0,0,0,1.37-1.69V12.24A1.55,1.55,0,0,0,41.76,10.56Zm-1.63,10h-15v-7h15Z"/><path class="cls-1" d="M43.13,29v.18a1.36,1.36,0,0,1-1.28,1.42H23.42a1.36,1.36,0,0,1-1.29-1.42V29a1.36,1.36,0,0,1,1.29-1.4H41.85A1.35,1.35,0,0,1,43.13,29Z"/><path class="cls-1" d="M43.13,36v.18a1.36,1.36,0,0,1-1.28,1.42H23.42a1.36,1.36,0,0,1-1.29-1.42V36a1.36,1.36,0,0,1,1.29-1.4H41.85A1.35,1.35,0,0,1,43.13,36Z"/><path class="cls-1" d="M43.13,44v.18a1.36,1.36,0,0,1-1.28,1.42H23.42a1.36,1.36,0,0,1-1.29-1.42V44a1.36,1.36,0,0,1,1.29-1.4H41.85A1.35,1.35,0,0,1,43.13,44Z"/><path class="cls-1" d="M47.53,4.82l-28.4,0c-.84-3-3.7-5.32-6.87-4.76A6.19,6.19,0,0,0,7.13,6.15v45.2c0,2.93.49,6.61,3.42,6.61h28a1.61,1.61,0,0,0,1.62-1.59l0-4.49H47.3A1.83,1.83,0,0,0,49.13,50V6.41A1.59,1.59,0,0,0,47.53,4.82Zm-1.4,44.11H28a1.47,1.47,0,0,0-1.48,1.46A1.49,1.49,0,0,0,28,51.87h9.17v3H13C10,55,10.3,51.57,10.28,49.94a3.29,3.29,0,0,1,3.21-3.11c1.64,0,2.67,1.62,2.67,3.57,0,1-.06,1.45,1.68,1.45l4.26,0a1.47,1.47,0,0,0,1.46-1.48,1.46,1.46,0,0,0-1.46-1.46H19.17l0-28.83a1.5,1.5,0,0,0-3,0V44.62a6.11,6.11,0,0,0-6,0V5.85a3,3,0,0,1,2-2.92,3,3,0,0,1,4,2.83V14.1a1.5,1.5,0,0,0,3,0V7.85l27-.06Z"/></svg>