<svg xmlns="http://www.w3.org/2000/svg" xmlns:xlink="http://www.w3.org/1999/xlink" width="73" height="73" viewBox="0 0 73 73"><defs><path id="a" d="M184.38 2032.15c.31 0 .63-.12.86-.36a1.2 1.2 0 0 0 0-1.72l-9.8-9.79c-.08-.08-2.01-1.79-2.01-5.16v-18.25a2.44 2.44 0 1 1 4.87 0v9.63c0 .67.54 1.21 1.22 1.21a1.2 1.2 0 0 0 1.21-1.21v-9.63a4.87 4.87 0 1 0-9.73 0v18.25a9.4 9.4 0 0 0 2.79 6.94l9.73 9.73c.24.24.55.36.86.36z"/><path id="b" d="M198.68 2036h-19.46c-.68 0-1.22.55-1.22 1.22v4.86a1.22 1.22 0 0 0 2.43 0v-3.65h17.04v3.65a1.22 1.22 0 1 0 2.43 0v-4.86c0-.67-.55-1.22-1.22-1.22z"/><path id="c" d="M178 2013.77c.05 1.23.59 2.4 1.5 3.32l6.09 6.08a1.2 1.2 0 0 0 1.72 0c.47-.47.47-1.24 0-1.72l-6.09-6.08a2.62 2.62 0 0 1-.79-1.7c-.02-.6.2-1.15.65-1.59.44-.45.99-.67 1.59-.65.61.03 1.22.31 1.7.79l8.57 8.57c.08.08 2.02 1.85 2.02 5.17v6.09c0 .67.55 1.21 1.22 1.21.67 0 1.22-.54 1.22-1.21v-6.09c0-4.47-2.74-6.9-2.79-6.94l-8.52-8.52a5.02 5.02 0 0 0-3.32-1.5 4.5 4.5 0 0 0-3.41 1.36 4.5 4.5 0 0 0-1.36 3.41z"/><path id="d" d="M219.85 2018.96c-.11.1-2.85 2.53-2.85 7v6.09c0 .67.54 1.21 1.22 1.21a1.2 1.2 0 0 0 1.21-1.21v-6.09c0-3.32 1.94-5.09 2.08-5.22l8.52-8.52a2.6 2.6 0 0 1 1.69-.79c.61-.02 1.16.2 1.6.65.42.42.64.94.64 1.51 0 .64-.28 1.27-.79 1.78l-6.08 6.08a1.2 1.2 0 0 0 0 1.72 1.2 1.2 0 0 0 1.72 0l6.08-6.08a5 5 0 0 0 1.51-3.5c0-1.21-.48-2.36-1.36-3.23a4.54 4.54 0 0 0-3.42-1.36 5 5 0 0 0-3.31 1.5z"/><path id="e" d="M229.8 1983.38a13.4 13.4 0 0 0-25.52-5.64 1.22 1.22 0 1 0 2.21 1.02 11 11 0 0 1 9.93-6.33c6.03 0 10.95 4.92 10.95 10.95 0 7.15-7.27 18.5-19.47 25.38-12.2-6.88-19.47-18.23-19.47-25.38a10.97 10.97 0 0 1 15.34-10.03c.61.26 1.33-.02 1.6-.63a1.21 1.21 0 0 0-.63-1.6 13.4 13.4 0 0 0-18.74 12.26c0 7.86 7.47 20.29 21.32 27.84a1.2 1.2 0 0 0 1.16 0c13.85-7.55 21.32-19.98 21.32-27.84z"/><path id="f" d="M238.73 1992a4.87 4.87 0 0 0-4.86 4.87v9.63a1.22 1.22 0 0 0 2.43 0v-9.63a2.43 2.43 0 1 1 4.87 0v18.25c0 3.37-1.93 5.08-2.08 5.22l-9.73 9.73a1.2 1.2 0 0 0 0 1.72 1.21 1.21 0 0 0 1.72 0l9.65-9.66a9.4 9.4 0 0 0 2.87-7.01v-18.25a4.87 4.87 0 0 0-4.87-4.87z"/><path id="g" d="M235.68 2036h-19.46c-.68 0-1.22.55-1.22 1.22v4.86a1.22 1.22 0 0 0 2.43 0v-3.65h17.04v3.65a1.22 1.22 0 1 0 2.43 0v-4.86c0-.67-.55-1.22-1.22-1.22z"/><path id="h" d="M217.81 1977.36a6.15 6.15 0 0 1 3.7 3.71 1.22 1.22 0 0 0 1.55.74c.64-.23.97-.92.74-1.56a8.47 8.47 0 0 0-5.18-5.18 1.22 1.22 0 0 0-1.55.74c-.22.63.11 1.33.74 1.55z"/></defs><g transform="translate(-171 -1970)"><use xlink:href="#a"/><use xlink:href="#b"/><use xlink:href="#c"/><use xlink:href="#d"/><use fill="#f3495e" xlink:href="#e"/><use xlink:href="#f"/><use xlink:href="#g"/><use xlink:href="#h"/></g></svg>