<svg xmlns="http://www.w3.org/2000/svg" xmlns:xlink="http://www.w3.org/1999/xlink" width="87" height="86" viewBox="0 0 87 86"><defs><path id="a" d="M781 1980.82V1967h2.76v13.82z"/><path id="b" d="M801 1980.82V1967h2.76v13.82z"/><path id="c" d="M792.82 1960.15l14.5 7.93 1.32-2.43-15.82-8.65-15.82 8.65 1.32 2.43z"/><path id="d" d="M783.78 2017.91a6.9 6.9 0 0 1-6.89 6.91 6.9 6.9 0 0 1 0-13.82 6.9 6.9 0 0 1 6.89 6.91zm-2.75 0z"/><path id="e" d="M801 2017.91a6.9 6.9 0 0 1 6.89-6.91 6.9 6.9 0 0 1 0 13.82 6.9 6.9 0 0 1-6.89-6.91zm2.76 0a4.14 4.14 0 1 0 8.28 0 4.14 4.14 0 0 0-8.28 0z"/><path id="f" d="M783 2032.67v10.24h2.76v-9.1l6.89-6.9 6.89 6.9v9.1h2.76v-10.24l-9.65-9.67z"/><path id="g" d="M822.61 2017c-1.13 0-2.24.46-3.04 1.26l-8.02 8.04a8.24 8.24 0 0 0-7.86 0l-8.02-8.04a4.36 4.36 0 0 0-3.05-1.26h-.33c-1.13 0-2.24.46-3.04 1.26l-8.03 8.04a8.22 8.22 0 0 0-7.85 0l-8.03-8.04a4.3 4.3 0 0 0-6.08 6.1l9.77 9.79v9.1h2.75v-10.24l-10.57-10.6a1.56 1.56 0 0 1 1.09-2.65c.41 0 .81.17 1.09.46l9.66 9.68.96-.73a5.47 5.47 0 0 1 6.57 0l.96.73 9.65-9.68c.29-.29.69-.46 1.1-.46h.33c.41 0 .81.17 1.1.46l9.65 9.68.96-.73a5.47 5.47 0 0 1 6.57 0l.96.73 9.66-9.68c.28-.29.68-.46 1.09-.46a1.55 1.55 0 0 1 1.09 2.65l-10.57 10.6v10.24h2.76v-9.1l9.76-9.79a4.3 4.3 0 0 0-3.04-7.36z"/><path id="h" d="M770 1988.91a6.9 6.9 0 0 1 6.89-6.91 6.9 6.9 0 0 1 0 13.82 6.9 6.9 0 0 1-6.89-6.91zm2.76 0a4.14 4.14 0 1 0 8.28 0 4.14 4.14 0 0 0-8.28 0z"/><path id="i" d="M801 1988.91a6.9 6.9 0 0 1 6.89-6.91 6.9 6.9 0 0 1 0 13.82 6.9 6.9 0 0 1-6.89-6.91zm2.76 0a4.14 4.14 0 1 0 8.28 0 4.14 4.14 0 0 0-8.28 0z"/><path id="j" d="M783 2003.67v10.24h2.76v-9.1l6.89-6.9 6.89 6.9v9.1h2.76v-10.24l-9.65-9.67z"/><path id="k" d="M822.61 1988c-1.13 0-2.24.46-3.04 1.26l-8.02 8.04a8.24 8.24 0 0 0-7.86 0l-8.02-8.04a4.36 4.36 0 0 0-3.05-1.26h-.33c-1.13 0-2.24.46-3.04 1.26l-8.03 8.04a8.22 8.22 0 0 0-7.85 0l-8.03-8.04a4.3 4.3 0 0 0-6.08 6.1l9.77 9.79v9.1h2.75v-10.24l-10.57-10.6a1.56 1.56 0 0 1 1.09-2.65c.41 0 .81.17 1.09.46l9.66 9.68.96-.73a5.47 5.47 0 0 1 6.57 0l.96.73 9.65-9.68c.29-.29.69-.46 1.1-.46h.33c.41 0 .81.17 1.1.46l9.65 9.68.96-.73a5.47 5.47 0 0 1 6.57 0l.96.73 9.66-9.68c.28-.29.68-.46 1.09-.46a1.55 1.55 0 0 1 1.09 2.65l-10.57 10.6v10.24h2.76v-9.1l9.76-9.79a4.3 4.3 0 0 0-3.04-7.36z"/><path id="l" d="M754 2008.63V1981h2.76v27.63z"/><path id="m" d="M768 1985.14V1981h2.76v4.14z"/><path id="n" d="M773.81 1982.1l1.53-2.3-13.17-8.8-13.17 8.8 1.53 2.3 11.64-7.78z"/><path id="o" d="M828 2000.25V1974h2.76v26.25z"/><path id="p" d="M815 1985.05V1974h2.76v11.05z"/><path id="q" d="M823.17 1964l-13.17 8.8 1.53 2.3 11.64-7.78 11.64 7.78 1.53-2.3z"/><path id="r" d="M754 2013.76V2011h2.76v2.76z"/><path id="s" d="M828 2005.76V2003h2.76v2.76z"/><path id="t" d="M828 2010.76V2008h2.76v2.76z"/><path id="u" d="M791 1975.05V1964h2.76v11.05z"/><path id="v" d="M791 1980.76V1978h2.76v2.76z"/><path id="w" d="M791 1986.76V1984h2.76v2.76z"/></defs><g transform="translate(-749 -1957)"><use xlink:href="#a"/><use xlink:href="#b"/><use fill="#ef8424" xlink:href="#c"/><use xlink:href="#d"/><use xlink:href="#e"/><use xlink:href="#f"/><use xlink:href="#g"/><use xlink:href="#h"/><use xlink:href="#i"/><use xlink:href="#j"/><use xlink:href="#k"/><use xlink:href="#l"/><use xlink:href="#m"/><use fill="#ef8424" xlink:href="#n"/><use xlink:href="#o"/><use xlink:href="#p"/><use fill="#ef8424" xlink:href="#q"/><use xlink:href="#r"/><use xlink:href="#s"/><use xlink:href="#t"/><use xlink:href="#u"/><use xlink:href="#v"/><use xlink:href="#w"/></g></svg>