<svg xmlns="http://www.w3.org/2000/svg" xmlns:xlink="http://www.w3.org/1999/xlink" width="74" height="80" viewBox="0 0 74 80"><defs><path id="a" d="M510 1991.33c0 .74.59 1.34 1.32 1.34h13.18c.73 0 1.32-.6 1.32-1.34 0-.73-.59-1.33-1.32-1.33h-13.18c-.73 0-1.32.6-1.32 1.33z"/><path id="b" d="M518 1999.33c0 .74.59 1.34 1.32 1.34h7.91c.73 0 1.32-.6 1.32-1.34 0-.73-.59-1.33-1.32-1.33h-7.91c-.73 0-1.32.6-1.32 1.33z"/><path id="c" d="M516.95 1984.67c.73 0 1.32-.6 1.32-1.34 0-.73-.59-1.33-1.32-1.33h-2.63c-.73 0-1.32.6-1.32 1.33 0 .74.59 1.34 1.32 1.34z"/><path id="d" d="M500.32 1998c-.73 0-1.32.6-1.32 1.33 0 .74.59 1.34 1.32 1.34h13.18c.73 0 1.32-.6 1.32-1.34 0-.73-.59-1.33-1.32-1.33z"/><path id="e" d="M506.91 2034.67h-25.05a3.98 3.98 0 0 1-3.95-4v-61.34c0-.73-.59-1.33-1.32-1.33a6.64 6.64 0 0 0-6.59 6.67c0 .73.59 1.33 1.32 1.33.73 0 1.32-.6 1.32-1.33 0-1.74 1.1-3.22 2.63-3.78v59.78a6.64 6.64 0 0 0 6.59 6.66h25.05c.73 0 1.32-.59 1.32-1.33 0-.74-.59-1.33-1.32-1.33z"/><path id="f" d="M487.32 1992.67h18.45c.73 0 1.32-.6 1.32-1.34 0-.73-.59-1.33-1.32-1.33h-18.45c-.73 0-1.32.6-1.32 1.33 0 .74.59 1.34 1.32 1.34z"/><path id="g" d="M487.32 1984.67h5.27c.73 0 1.32-.6 1.32-1.34 0-.73-.59-1.33-1.32-1.33h-5.27c-.73 0-1.32.6-1.32 1.33 0 .74.59 1.34 1.32 1.34z"/><path id="h" d="M508.86 1982h-10.54c-.73 0-1.32.6-1.32 1.33 0 .74.59 1.34 1.32 1.34h10.54c.73 0 1.32-.6 1.32-1.34 0-.73-.59-1.33-1.32-1.33z"/><path id="i" d="M526.96 1963h-50.1a11.95 11.95 0 0 0-11.86 11.95v.07a12.08 12.08 0 0 0 5.93 10.34c.63.37 1.44.15 1.8-.48.37-.64.15-1.46-.48-1.82a9.4 9.4 0 0 1-4.61-8.08 9.29 9.29 0 0 1 9.22-9.31h50.1a9.29 9.29 0 0 1 9.23 9.33v56c0 .68-.19 1.35-.54 1.96-.37.63-.16 1.45.47 1.83a1.31 1.31 0 0 0 1.8-.48c.59-1.01.9-2.16.9-3.31v-56c0-6.62-5.32-12-11.86-12z"/><path id="j" d="M517 2023.9c0-3.81 3.07-6.9 6.85-6.9a6.87 6.87 0 0 1 6.85 6.9c0 3.8-3.07 6.89-6.85 6.89a6.87 6.87 0 0 1-6.85-6.9z"/><path id="k" d="M522.91 2032a7.97 7.97 0 0 1-7.91-8c0-4.41 3.55-8 7.91-8a7.97 7.97 0 0 1 7.91 8c0 4.41-3.55 8-7.91 8zm5.27-8a5.3 5.3 0 0 0-5.27-5.33 5.3 5.3 0 0 0-5.27 5.33 5.3 5.3 0 0 0 5.27 5.33 5.3 5.3 0 0 0 5.27-5.33z"/><path id="l" d="M520.45 2033.92a1.33 1.33 0 0 0-1.8.49l-2.84 4.98-.45-.69a1.34 1.34 0 0 0-1.02-.6l-.81-.05 2.88-5.05c.37-.64.15-1.45-.48-1.82a1.3 1.3 0 0 0-1.8.49l-3.95 6.92a1.34 1.34 0 0 0 1.06 2l2.28.13 1.27 1.94c.24.37.65.6 1.1.6h.04c.45-.02.87-.27 1.1-.67l3.9-6.84c.37-.64.15-1.46-.48-1.83z"/><path id="m" d="M532 2031.67a1.3 1.3 0 0 0-1.8-.49 1.33 1.33 0 0 0-.48 1.82l2.85 4.99-.82.05c-.41.03-.79.25-1.02.6l-.45.68-2.82-4.94a1.3 1.3 0 0 0-1.8-.49 1.33 1.33 0 0 0-.48 1.82l3.89 6.82c.23.4.65.65 1.1.66h.04c.44 0 .86-.22 1.1-.6l1.26-1.93 2.29-.14c.45-.02.86-.29 1.08-.69.21-.41.21-.9-.02-1.3z"/><path id="n" d="M487.32 2000.67h7.91c.73 0 1.32-.6 1.32-1.34 0-.73-.59-1.33-1.32-1.33h-7.91c-.73 0-1.32.6-1.32 1.33 0 .74.59 1.34 1.32 1.34z"/><path id="o" d="M487.32 2008.67h15.82c.73 0 1.32-.6 1.32-1.34 0-.73-.59-1.33-1.32-1.33h-15.82c-.73 0-1.32.6-1.32 1.33 0 .74.59 1.34 1.32 1.34z"/><path id="p" d="M487.51 2025.26a1.3 1.3 0 0 0 1.77.6c.65-.33.91-1.13.59-1.79-1.31-2.64-1.6-5.01-.79-6.34.43-.7 1.19-1.06 2.24-1.06.63 0 .87.22 1.01.43.99 1.43.05 5.79-.92 8.43-.22.59 0 1.25.52 1.59.52.34 1.2.27 1.64-.18.57-.57 1.18-1.13 1.71-1.59v.65a1.31 1.31 0 1 0 2.25.94 16 16 0 0 1 1.89-1.63l-.05.1a1.33 1.33 0 0 0 1.18 1.92h5.27c.73 0 1.32-.59 1.32-1.33 0-.74-.59-1.33-1.32-1.33h-3.43c.11-.64.08-1.28-.23-1.8a1.85 1.85 0 0 0-1.61-.87c-.81 0-1.77.5-2.65 1.12a1.5 1.5 0 0 0-.92-1.27c-.35-.15-.81-.34-1.91.33.44-2.3.56-4.95-.57-6.6a3.64 3.64 0 0 0-3.18-1.58 5 5 0 0 0-4.48 2.33c-1.32 2.15-1.07 5.41.67 8.93z"/><path id="q" d="M522.82 2007.33c0-.73-.59-1.33-1.32-1.33h-13.18c-.73 0-1.32.6-1.32 1.33 0 .74.59 1.34 1.32 1.34h13.18c.73 0 1.32-.6 1.32-1.34z"/></defs><g transform="translate(-465 -1963)"><use xlink:href="#a"/><use xlink:href="#b"/><use xlink:href="#c"/><use xlink:href="#d"/><use xlink:href="#e"/><use xlink:href="#f"/><use xlink:href="#g"/><use xlink:href="#h"/><use xlink:href="#i"/><use fill="#f4495e" xlink:href="#j"/><use xlink:href="#k"/><use xlink:href="#l"/><use xlink:href="#m"/><use xlink:href="#n"/><use xlink:href="#o"/><use fill="#24b6ef" xlink:href="#p"/><use xlink:href="#q"/></g></svg>