<svg xmlns="http://www.w3.org/2000/svg" xmlns:xlink="http://www.w3.org/1999/xlink" width="85" height="75" viewBox="0 0 85 75"><defs><path id="a" d="M1056 1726l.5 22.5 24 .5.5 6 8.5-7 5 .5.5-22.5z"/><path id="b" d="M1122.09 1736.04v17.16a1.7 1.7 0 0 1-1.7 1.69h-17.05v3.9a1.7 1.7 0 0 1-2.89 1.19l-5.1-5.09h-4.32c-.94 0-1.69-.76-1.69-1.69v-2.9h-1.43l-6.97 6.97a1.72 1.72 0 0 1-1.85.36 1.7 1.7 0 0 1-1.05-1.56v-5.77h-23.35a1.7 1.7 0 0 1-1.69-1.7v-22.91c0-.93.76-1.69 1.69-1.69h39.23c.93 0 1.69.76 1.69 1.69v8.66h24.78c.94 0 1.7.76 1.7 1.69zm-29.87-8.66h-35.83v19.53h23.35c.93 0 1.69.76 1.69 1.69v3.38l4.58-4.57c.32-.32.75-.5 1.2-.5h5.01zm26.48 24.12v-13.76h-23.09v10.86c0 .94-.76 1.7-1.69 1.7h-1.2v1.2h3.33c.45 0 .88.18 1.2.5l2.7 2.7v-1.5c0-.94.76-1.7 1.69-1.7z"/><path id="c" d="M1113.96 1740h-14.27a1.69 1.69 0 1 0 0 3.38h14.27a1.69 1.69 0 1 0 0-3.38z"/><path id="d" d="M1113.96 1745h-14.27a1.69 1.69 0 1 0 0 3.38h14.27a1.69 1.69 0 1 0 0-3.38z"/><path id="e" d="M1077.06 1764.79l-.12 1.96-.52 7.85a7.84 7.84 0 0 1-4.07 6.4 7.85 7.85 0 0 1-7.62 0 7.85 7.85 0 0 1-4.08-6.4l-.44-6.87-.2-2.94a6.41 6.41 0 0 1 6.37-6.79h4.32a6.41 6.41 0 0 1 6.36 6.79zm-13.59.97c3.88-.61 5.28-2.37 5.51-2.69l.63-1.69h-3.23c-.84 0-1.61.34-2.18.95a2.96 2.96 0 0 0-.81 2.24zm9.99 2.19a13.33 13.33 0 0 1-2.39-.85 5.9 5.9 0 0 1-.83-.51c-1.27 1.01-3.34 2.12-6.55 2.56l.34 5.23a4.5 4.5 0 0 0 6.68 3.66 4.5 4.5 0 0 0 2.33-3.66zm.23-3.46c.03-.8-.25-1.57-.81-2.16l-.01-.01-.59 1.57a5.82 5.82 0 0 0 1.41.6z"/><path id="f" d="M1087.62 1798.12c-.32.39-.8.61-1.3.61h-35.63a1.7 1.7 0 0 1-1.66-1.99l.71-3.95a11.98 11.98 0 0 1 11.74-9.79h2.15c.45 0 .88.18 1.2.5l3.68 3.68 3.68-3.68c.32-.32.75-.5 1.2-.5h2.15a11.97 11.97 0 0 1 11.73 9.79l.72 3.95c.09.49-.05 1-.37 1.38zm-34.9-2.77h31.57l-.35-1.95a8.6 8.6 0 0 0-8.4-7.01h-1.45l-4.39 4.38c-.31.31-.74.49-1.19.49-.45 0-.88-.18-1.2-.49l-4.38-4.38h-1.45a8.47 8.47 0 0 0-8.41 7.01z"/><path id="g" d="M1123.06 1764.79l-.12 1.96-.52 7.85a7.84 7.84 0 0 1-4.07 6.4 7.85 7.85 0 0 1-7.62 0 7.85 7.85 0 0 1-4.08-6.4l-.44-6.87-.2-2.94a6.41 6.41 0 0 1 6.37-6.79h4.32a6.41 6.41 0 0 1 6.36 6.79zm-13.59.97c3.88-.61 5.28-2.37 5.51-2.69l.63-1.69h-3.23c-.84 0-1.61.34-2.18.95a2.96 2.96 0 0 0-.81 2.24zm9.99 2.19a13.33 13.33 0 0 1-2.39-.85 5.9 5.9 0 0 1-.83-.51c-1.27 1.01-3.34 2.12-6.55 2.56l.34 5.23a4.5 4.5 0 0 0 6.69 3.66 4.51 4.51 0 0 0 2.32-3.66zm.23-3.46c.03-.8-.25-1.57-.81-2.16l-.01-.01-.59 1.57a5.82 5.82 0 0 0 1.41.6z"/><path id="h" d="M1133.62 1798.12c-.32.39-.8.61-1.3.61h-35.63a1.7 1.7 0 0 1-1.66-1.99l.71-3.95a11.98 11.98 0 0 1 11.74-9.79h2.15c.45 0 .88.18 1.2.5l3.68 3.67 3.68-3.67c.32-.32.75-.5 1.2-.5h2.15a11.97 11.97 0 0 1 11.73 9.79l.72 3.95c.09.49-.05 1-.37 1.38zm-34.9-2.77h31.57l-.35-1.95a8.6 8.6 0 0 0-8.4-7.02h-1.45l-4.39 4.39c-.31.31-.74.49-1.19.49-.45 0-.88-.18-1.2-.49l-4.38-4.39h-1.45a8.6 8.6 0 0 0-8.41 7.02z"/><path id="i" d="M1086.71 1732h-1.02a1.69 1.69 0 1 0 0 3.38h1.02a1.69 1.69 0 1 0 0-3.38z"/><path id="j" d="M1079.69 1732h-18a1.69 1.69 0 1 0 0 3.38h18a1.69 1.69 0 1 0 0-3.38z"/><path id="k" d="M1086.65 1739h-24.96a1.69 1.69 0 1 0 0 3.38h24.96a1.69 1.69 0 1 0 0-3.38z"/></defs><g transform="translate(-1049 -1724)"><use fill="#ef8424" xlink:href="#a"/><use xlink:href="#b"/><use fill="#24b6ef" xlink:href="#c"/><use fill="#24b6ef" xlink:href="#d"/><use xlink:href="#e"/><use xlink:href="#f"/><use xlink:href="#g"/><use xlink:href="#h"/><use xlink:href="#i"/><use xlink:href="#j"/><use xlink:href="#k"/></g></svg>