<svg xmlns="http://www.w3.org/2000/svg" xmlns:xlink="http://www.w3.org/1999/xlink" width="181" height="76" viewBox="0 0 181 76"><defs><path id="a" d="M840.37 1764.74c-.08.47-.38.87-.81 1.09l-2.98 1.48a1.56 1.56 0 0 1-1.52-.11l-14.41-9.9a139.48 139.48 0 0 1-21.08 5.13l22.39 18.71c.47.4.65 1.06.44 1.64a1.5 1.5 0 0 1-1.4.97h-10.45c-.28 0-.56-.08-.8-.23l-24.03-15.27c-2.28 2.49-8.28 3.66-13.95 3.66-2.47 0-4.48-2.33-4.48-5.19 0-.79.18-1.54.45-2.22h-9.4c-3.78-.13-6.51-1.95-7.19-4.74-.57-2.36.38-5.76 4.74-8.26 4.49-5.19 8.15-7.45 18.23-7.72l17.48-17.35c.28-.27.66-.43 1.05-.43h5.97a1.48 1.48 0 0 1 1.33 2.14l-7.87 15.63h19.48l-2.44-8.48a1.48 1.48 0 0 1 1.43-1.89h4.48c.5 0 .96.25 1.24.66l5.17 7.7 5.75-9.14c.27-.43.75-.7 1.26-.7h4.48a1.49 1.49 0 0 1 1.41 1.95l-4.13 12.3c1.29 1.1 1.89 2.47 1.67 3.88a4.5 4.5 0 0 1-2.3 3.11l10.37 10.3c.34.33.49.81.42 1.28zm-17.42-19.8c1.2.71 2.95.99 4.32.63l3.59-10.68h-1.58zm-10.42-8.57l2.13 7.4h4.54l-4.97-7.4zm-34.18 7.4h10.4l7.46-14.81h-2.94zm-5.09 22.95c0-1.18-.69-2.22-1.49-2.22s-1.49 1.04-1.49 2.22c0 1.19.69 2.22 1.49 2.22.79 0 1.49-1.03 1.49-2.22zm9.89-.1l-3.33-2.12h-4.02a5.83 5.83 0 0 1 .1 4.22c3.8-.43 6.24-1.38 7.25-2.1zm8.96-6.56h-13.75l32.63 20.73h5.92zm25.46-4.88l-1.9-1.31c-.5-.34-.74-.95-.61-1.54.14-.59.62-1.04 1.21-1.13l8.95-1.49c.48-.08.97.08 1.31.42l.83.83c.98-.39 1.51-.92 1.57-1.35.06-.37.05-.97-.48-1.4h-2.98c-2.07 0-3.68-.23-5.09-1.48h-45.63c-6.57.12-10.02 1.06-12.76 3.01l1.45 1.43h2.36a1.49 1.49 0 1 1 0 2.97h-2.98c-.19 0-.39-.04-.57-.12a1.43 1.43 0 0 1-.49-.32l-2.02-2.01a43.3 43.3 0 0 0-1.75 1.92c-.12.14-.26.25-.41.34-2.56 1.41-3.94 3.42-3.53 5.12.35 1.44 2.02 2.39 4.35 2.47h16.76l-2.7-1.71a1.48 1.48 0 0 1 .8-2.73h19.39c.36 0 .7.12.96.35l2.95 2.46a142.2 142.2 0 0 0 21.01-4.73zm18.81 8.92l-11.42-11.34-4.57.76 15.64 10.75z"/><path id="b" d="M772.98 1751h-1.49c-.82 0-1.49.66-1.49 1.48s.67 1.48 1.49 1.48h1.49a1.48 1.48 0 1 0 0-2.96z"/><path id="c" d="M779.98 1751h-1.49c-.82 0-1.49.66-1.49 1.48s.67 1.48 1.49 1.48h1.49a1.48 1.48 0 1 0 0-2.96z"/><path id="d" d="M787.98 1751h-1.49c-.82 0-1.49.66-1.49 1.48s.67 1.48 1.49 1.48h1.49a1.48 1.48 0 1 0 0-2.96z"/><path id="e" d="M794.98 1751h-1.49c-.82 0-1.49.66-1.49 1.48s.67 1.48 1.49 1.48h1.49a1.48 1.48 0 1 0 0-2.96z"/><path id="f" d="M802.98 1751h-1.49c-.82 0-1.49.66-1.49 1.48s.67 1.48 1.49 1.48h1.49a1.48 1.48 0 1 0 0-2.96z"/><path id="g" d="M809.98 1751h-1.49c-.82 0-1.49.66-1.49 1.48s.67 1.48 1.49 1.48h1.49a1.48 1.48 0 1 0 0-2.96z"/><path id="h" d="M703 1799.11c12.23-12.5 26-22.07 41.22-28.11zm129.88-27.85c12.67 4.74 27.19 12.31 46.62 24.35z"/></defs><g transform="scale(-1 1) rotate(-11 -8612.1 5513.5)"><use xlink:href="#a"/><use xlink:href="#b"/><use xlink:href="#c"/><use xlink:href="#d"/><use xlink:href="#e"/><use xlink:href="#f"/><use xlink:href="#g"/></g><use fill="#fff" fill-opacity="0" stroke="#24b6ef" stroke-linecap="round" stroke-linejoin="round" stroke-miterlimit="50" stroke-width="4" xlink:href="#h" transform="translate(-701 -1726)"/></svg>