<svg xmlns="http://www.w3.org/2000/svg" xmlns:xlink="http://www.w3.org/1999/xlink" width="62" height="82" viewBox="0 0 62 82"><defs><path id="a" d="M1068 1960.35v18.02l4.94-1.8 4.94 2.25.9-18.47-3.14-1.35z"/><path id="b" d="M1119 1965v70.84a4.16 4.16 0 0 1-4.15 4.16h-53.7a4.16 4.16 0 0 1-4.15-4.16V1965c0-2.3 1.86-4.17 4.15-4.17h4.33v-.08a2.75 2.75 0 0 1 2.74-2.75h8.48c1.5 0 2.73 1.23 2.73 2.75v.08h35.42a4.16 4.16 0 0 1 4.15 4.17zm-50.87 12.01l3.73-1.87c.19-.09.39-.14.6-.14.2 0 .4.05.59.14l3.73 1.87v-16.26c0-.05-.04-.09-.08-.09h-8.48a.09.09 0 0 0-.09.09zm48.22 58.83V1965a1.5 1.5 0 0 0-1.5-1.51h-35.42v15.67c0 .46-.23.89-.63 1.13-.21.14-.45.2-.69.2-.2 0-.41-.04-.59-.14l-5.06-2.53-5.06 2.53a1.33 1.33 0 0 1-1.92-1.19v-15.67h-4.33c-.83 0-1.5.68-1.5 1.51v70.84c0 .83.67 1.5 1.5 1.5h53.7c.83 0 1.5-.67 1.5-1.5z"/><path id="c" d="M1107.39 2008.82v.01c0 3.08-3.13 5.58-6.98 5.58-3.84 0-6.97-2.5-6.97-5.58v-.14l.02-.08v-.05l.02-.06.02-.08.01-.03.04-.09v-.01l5.54-12.49v-1.23h-10.07v11.73a4.19 4.19 0 0 1 2.83 3.95v10h2.91a1.33 1.33 0 1 1 0 2.66h-14.13a1.33 1.33 0 1 1 0-2.66h2.91v-10a4.19 4.19 0 0 1 2.83-3.95v-11.73h-10.07v1.23l5.54 12.49v.01l.04.09.01.03a.3.3 0 0 1 .02.08l.02.06v.05l.02.08v.14c0 3.08-3.13 5.58-6.97 5.58-3.85 0-6.98-2.5-6.98-5.58v-.01l.01-.09v-.04l.01-.08.01-.05.01-.06a.19.19 0 0 0 .02-.08l.02-.03.03-.09v-.01l5.54-12.49v-1.23h-1.5c-.73 0-1.32-.59-1.32-1.32 0-.74.59-1.33 1.32-1.33h14.22v-1.81a4.17 4.17 0 0 1 1.33-8.11 4.17 4.17 0 0 1 1.32 8.11v1.81h14.22c.73 0 1.32.59 1.32 1.33 0 .73-.59 1.32-1.32 1.32h-1.5v1.23l5.54 12.49v.01l.03.09.02.03.02.08.01.06.01.05.01.08.01.04v.09zm-21.2-22.66c0 .83.68 1.51 1.51 1.51a1.5 1.5 0 1 0-1.51-1.51zm-14.83 21.34h7.23l-3.61-8.15zm7.45 2.66h-7.67c.73.94 2.19 1.59 3.84 1.59 1.64 0 3.1-.65 3.83-1.59zm10.39.09c0-.83-.68-1.51-1.5-1.51-.83 0-1.51.68-1.51 1.51v10h3.01zm7.6-2.75h7.23l-3.62-8.15zm7.45 2.66h-7.67c.73.94 2.19 1.59 3.83 1.59 1.65 0 3.11-.65 3.84-1.59z"/></defs><g transform="translate(-1057 -1958)"><use fill="#29c26d" xlink:href="#a"/><use xlink:href="#b"/><use xlink:href="#c"/></g></svg>