<svg width="69" height="67" viewBox="0 0 69 67" xmlns="http://www.w3.org/2000/svg"><title>Artboard</title><g fill="none" fill-rule="evenodd"><path fill="#000" d="M25.468 7.728h2.162v10.66h-2.162zm15.137 0h2.162v10.66h-2.162z"/><path fill="#EF8424" d="M34.118 2.546l11.375 6.118 1.036-1.872L34.118.118 21.706 6.792l1.036 1.872z"/><path d="M22.224 41.84c-2.98 0-5.406 2.391-5.406 5.33 0 2.94 2.425 5.33 5.406 5.33s5.406-2.39 5.406-5.33c0-2.939-2.425-5.33-5.406-5.33zm0 8.528c-1.788 0-3.243-1.434-3.243-3.198 0-1.763 1.455-3.198 3.243-3.198 1.789 0 3.244 1.435 3.244 3.198 0 1.764-1.455 3.198-3.244 3.198zM46.011 52.5c2.98 0 5.406-2.39 5.406-5.33 0-2.939-2.425-5.33-5.406-5.33-2.98 0-5.406 2.391-5.406 5.33 0 2.94 2.425 5.33 5.406 5.33zm0-8.528c1.788 0 3.244 1.435 3.244 3.198 0 1.764-1.456 3.198-3.244 3.198-1.788 0-3.244-1.434-3.244-3.198 0-1.763 1.456-3.198 3.244-3.198zM26.55 58.455v7.904h2.162v-7.021l5.406-5.33 5.406 5.33v7.02h2.162v-7.903l-7.568-7.462z" fill="#000"/><path d="M57.774 46.104a3.42 3.42 0 0 0-2.387.975l-6.293 6.205a6.53 6.53 0 0 0-6.164 0l-6.294-6.205a3.426 3.426 0 0 0-2.387-.975h-.262c-.889 0-1.758.355-2.386.975l-6.294 6.205a6.53 6.53 0 0 0-6.164 0l-6.294-6.205a3.426 3.426 0 0 0-2.387-.975c-1.86 0-3.375 1.493-3.375 3.327 0 .877.36 1.734.989 2.353l7.661 7.554v7.02H17.9v-7.903l-8.295-8.178a1.195 1.195 0 0 1-.354-.846c0-.658.544-1.195 1.212-1.195.319 0 .631.127.857.35l7.575 7.469.75-.557a4.342 4.342 0 0 1 5.16 0l.75.557 7.574-7.469c.227-.223.54-.35.859-.35h.262c.318 0 .63.127.857.35l7.575 7.469.75-.557a4.342 4.342 0 0 1 5.16 0l.75.557 7.574-7.469c.227-.223.54-.35.859-.35.668 0 1.212.537 1.212 1.195a1.2 1.2 0 0 1-.355.846l-8.295 8.178v7.904h2.162v-7.021l7.662-7.554c.628-.62.988-1.476.988-2.353 0-1.834-1.514-3.327-3.374-3.327zm-35.55-15.99c2.981 0 5.406-2.39 5.406-5.33 0-2.939-2.425-5.33-5.406-5.33-2.98 0-5.406 2.391-5.406 5.33 0 2.94 2.425 5.33 5.406 5.33zm0-8.528c1.789 0 3.244 1.435 3.244 3.198s-1.455 3.198-3.244 3.198c-1.788 0-3.243-1.435-3.243-3.198s1.455-3.198 3.243-3.198zm23.787 8.528c2.98 0 5.406-2.39 5.406-5.33 0-2.939-2.425-5.33-5.406-5.33-2.98 0-5.406 2.391-5.406 5.33 0 2.94 2.425 5.33 5.406 5.33zm0-8.528c1.788 0 3.244 1.435 3.244 3.198s-1.456 3.198-3.244 3.198c-1.788 0-3.244-1.435-3.244-3.198s1.456-3.198 3.244-3.198zM26.55 36.069v7.903h2.162v-7.02l5.406-5.33 5.406 5.33v7.02h2.162V36.07l-7.568-7.462z" fill="#000"/><path d="M57.774 23.718a3.42 3.42 0 0 0-2.387.975l-6.293 6.205a6.53 6.53 0 0 0-6.164 0l-6.294-6.205a3.426 3.426 0 0 0-2.387-.975h-.262c-.889 0-1.758.355-2.386.975l-6.294 6.205a6.53 6.53 0 0 0-6.164 0l-6.294-6.205a3.426 3.426 0 0 0-2.387-.975c-1.86 0-3.375 1.493-3.375 3.327 0 .877.36 1.734.989 2.353l7.661 7.554v7.02H17.9V36.07l-8.295-8.178a1.195 1.195 0 0 1-.354-.846c0-.659.544-1.195 1.212-1.195.319 0 .631.127.857.35l7.575 7.468.75-.556a4.342 4.342 0 0 1 5.16 0l.75.556 7.574-7.468c.227-.223.54-.35.859-.35h.262c.318 0 .63.127.857.35l7.575 7.468.75-.556a4.342 4.342 0 0 1 5.16 0l.75.556 7.574-7.468c.227-.223.54-.35.859-.35.668 0 1.212.536 1.212 1.195a1.2 1.2 0 0 1-.355.846l-8.295 8.178v7.903h2.162v-7.02l7.662-7.554c.628-.62.988-1.476.988-2.353 0-1.834-1.514-3.327-3.374-3.327zm-53.93-5.33h2.162v21.32H3.844zm10.812 0h2.162v3.198h-2.162z" fill="#000"/><path fill="#EF8424" d="M19.462 19.275l1.2-1.774-10.331-6.79L0 17.5l1.2 1.774 9.131-6.002z"/><path fill="#000" d="M62.229 13.058h2.162v20.254h-2.162zm-10.812 0h2.162v8.528h-2.162z"/><path fill="#EF8424" d="M57.904 5.38l-10.33 6.791 1.2 1.774 9.13-6.002 9.131 6.002 1.2-1.774z"/><path fill="#000" d="M3.844 41.84h2.162v2.132H3.844zm58.385-6.396h2.162v2.132h-2.162zm0 4.264h2.162v2.132h-2.162zM33.036 5.596h2.162v8.528h-2.162zm0 10.66h2.162v2.132h-2.162zm0 4.264h2.162v2.132h-2.162z"/></g></svg>