<svg width="139" height="64" viewBox="0 0 139 64" xmlns="http://www.w3.org/2000/svg"><title>Artboard</title><g fill="none" fill-rule="evenodd"><path d="M40.138 42.625l6.468-9.347c-1.101-.397-1.898-1.092-2.228-2.011-.374-1.04-.113-2.168.713-3.19l-4.992-8.698a1.12 1.12 0 0 1-.038-1.041c.16-.335.473-.575.841-.647l3.446-.67c.397-.077.803.051 1.077.338l5.775 6.06 2.845-6.6c.154-.354.476-.611.86-.686l3.446-.67c.36-.07.732.03 1.004.269.271.239.412.589.378.947l-.63 6.786 14.998-2.915-8.362-10.659a1.12 1.12 0 0 1-.161-1.101c.145-.37.475-.644.873-.721l4.595-.894c.304-.059.62.002.876.171l16.014 10.525c7.805-1.31 10.953-.143 15.176 3.113 3.724 1.246 4.958 3.674 4.866 5.554-.111 2.213-1.95 3.997-4.843 4.665l-7.238 1.407c.314.47.555 1.01.673 1.615.42 2.165-.783 4.226-2.683 4.596-4.37.849-9.161.867-11.282-.68l-16.256 15.16a1.191 1.191 0 0 1-.585.298l-8.041 1.563a1.17 1.17 0 0 1-1.222-.527 1.127 1.127 0 0 1 .097-1.309L71.08 35.804c-7.673.228-13.643-.306-16.989-.73l-9.637 9.656a1.193 1.193 0 0 1-1.153.31l-2.515-.676a1.129 1.129 0 0 1-.648-1.739zm4.01-23.237l-1.216.237 4.335 7.554c1.108.067 2.42-.404 3.234-1.124l-6.353-6.667zm11.808-1.131l-2.739 6.352 3.497-.68.551-5.927-1.31.255zm15.05-8.746l-2.26.44 7.923 10.1 8.005-1.556L71.006 9.51zm22.445 27.066c.612-.119.996-1.01.821-1.905-.174-.896-.863-1.579-1.475-1.46-.613.12-.996 1.01-.822 1.906.174.896.865 1.578 1.476 1.46zm-3.212.449a4.413 4.413 0 0 1-.543-3.21l-3.097.601-2.256 2.104c.889.392 2.909.75 5.896.505zM60.435 52.307l4.558-.886 22.076-20.587-10.59 2.058-16.044 19.415zm12.597-18.866l1.904-2.303c.174-.211.417-.355.688-.408l14.934-2.903a1.17 1.17 0 0 1 1.26.592 1.13 1.13 0 0 1-.24 1.354l-1.825 1.703 2.605-.507h.005l10.295-2.002c1.783-.411 2.926-1.377 2.983-2.52.066-1.35-1.295-2.666-3.47-3.353a1.179 1.179 0 0 1-.364-.19 29.053 29.053 0 0 0-1.633-1.195l-1.262 1.824a1.195 1.195 0 0 1-.75.488l-2.297.447c-.634.123-1.246-.28-1.366-.899-.12-.619.296-1.221.93-1.345l1.822-.354.901-1.302c-2.392-1.069-5.188-1.263-10.27-.369l-35.137 6.83c-.902 1.155-2.109 1.574-3.7 1.884l-2.298.446c-.34.4-.26.855-.162 1.133.112.311.596.634 1.407.783l.522-.754c.212-.307.56-.497.94-.508l7.111-.218c.475-.014.91.255 1.1.68a1.13 1.13 0 0 1-.24 1.259l-1.271 1.273c3.766.396 9.63.769 16.878.434zm-29.76 9.213l10.463-10.485-3.627.112-7.125 10.295.29.078z" fill="#000"/><path d="M89.686 23.34l1.148-.222c.634-.124 1.247.279 1.367.898.12.619-.297 1.222-.93 1.345l-1.15.223c-.633.123-1.246-.28-1.366-.898-.12-.62.297-1.222.93-1.345zm-5.744 1.117l1.149-.223c.634-.123 1.246.28 1.366.898.12.62-.296 1.222-.93 1.345l-1.149.224a1.158 1.158 0 0 1-1.367-.899c-.12-.619.297-1.221.931-1.345zm-5.744 1.117l1.15-.224a1.158 1.158 0 0 1 1.366.899c.12.619-.297 1.221-.93 1.345l-1.15.223c-.634.123-1.246-.28-1.366-.898-.12-.62.296-1.222.93-1.345zm-5.743 1.116l1.148-.223c.634-.123 1.247.28 1.367.898.12.62-.296 1.222-.93 1.345l-1.15.223c-.633.124-1.246-.279-1.366-.898-.12-.619.297-1.222.93-1.345zm-5.744 1.117l1.149-.224a1.158 1.158 0 0 1 1.367.899c.12.619-.297 1.221-.931 1.345l-1.149.223c-.634.123-1.246-.28-1.366-.898-.12-.62.296-1.222.93-1.345zm-5.744 1.116l1.15-.223c.633-.123 1.246.28 1.366.898.12.62-.297 1.222-.93 1.345l-1.15.223c-.633.124-1.246-.279-1.366-.898-.12-.62.296-1.222.93-1.345z" fill="#000"/><path d="M4.418 62.995c9.558-9.614 20.154-16.755 31.648-21.236a2 2 0 0 0-1.452-3.727C22.583 42.722 11.52 50.177 1.582 60.175a2 2 0 0 0 2.836 2.82z" fill="#24B6EF" fill-rule="nonzero"/><path d="M99.204 43.972c9.814 3.61 21.108 9.411 36.22 18.62a2 2 0 0 0 2.081-3.416c-15.315-9.332-26.825-15.244-36.92-18.958a2 2 0 0 0-1.381 3.754z" fill="#24B6EF"/></g></svg>