<svg xmlns="http://www.w3.org/2000/svg" xmlns:xlink="http://www.w3.org/1999/xlink" width="149" height="84" viewBox="0 0 149 84"><defs><path id="a" d="M166 1767a6 6 0 1 1 12 0 6 6 0 0 1-12 0z"/><path id="b" d="M156 1767.5a16.5 16.5 0 1 1 33 0 16.5 16.5 0 0 1-33 0z"/><path id="c" d="M145 1767a27 27 0 1 1 54 0 27 27 0 0 1-54 0z"/><path id="d" d="M132 1767.5a39.5 39.5 0 1 1 79 0 39.5 39.5 0 0 1-79 0z"/><path id="e" d="M266.47 1735l-.45.04-2 2.92.93.38-9.43 8.15 1.68 1.24-12.13 7.91-.3-.9-.87.3-.5 2.12-1.63-.79-1.48 1.04.29 3.66-3.27 1.19.15 1.83-4.09-3.58-1.98.62.12 1.38-9.63 2.86 3.17-5.1-4.99-3.51-11.93 7.66.22 1.2-5.79.23.63-1.49-.72-.63-8.5 3-.3.99-4.66-1.28.38-.95-6.27.05 1.27-3.56-4.02 2.86-2.79-1.15-1.02 1.24-1.3-2.2-.54 1.65 1.67-7.05 4.63 4.47-.9-8.22-3.4-.42-6.84 6.78.11 1.37-5.59.24-.05 2.07-1.65-1.01-2.99 1.85-.25-.44-2.25 2.71.86 2.24-2.12 4.32-1.19-.82 1.01 12.36-2.54 1.81-1.84-.54.32 1.12-1.62-.55-.35 1.18-2.74-.7 6.06 16.56 1.34-.11 1.98-3.16-.96-.84.51-1.88 4.68-.38-.25-5.75 3.47-1.43.12 1.37 14.02 7.15-.22-2.75 2.6-1.14.11-1.38 10.47 1.9-.04 2.31 5.98 1.81-.63.52 2.32 6.49 20.49 3.85 1.39-4.95 22.94.88 1.53-5.88-1.02-1.52 8.54.21-.63.52 8.03 2.34 3.28-3.73 1.46 6.79-1.67 1.52 1.23 4.05.67-.05.29-1.87 1.58.1-1.22-20.41-4.44-2.17-.93 2.38-3.43-.86 8.93-19.63-1.11.09-1.31-4.95 1.62-2.21 1.43 1.03-1.27-4.49.84-.77s12.26 17.93 13.22 19.19c.96 1.27-1.67-4.01-1.67-4.01l-.61-4.79-2.15-1.67.57-1.19-2.35-1.19-1.07.55-2.04-5.82 1.98-3.16-2.22-7.89 1.23-1.48-5.1.65.98-1.7-2.45-2.56 1.8.09 3.02-4.17-2.28-.5z"/><clipPath id="f"><use fill="#fff" xlink:href="#a"/></clipPath><clipPath id="g"><use fill="#fff" xlink:href="#b"/></clipPath><clipPath id="h"><use fill="#fff" xlink:href="#c"/></clipPath><clipPath id="i"><use fill="#fff" xlink:href="#d"/></clipPath></defs><g transform="translate(-132 -1728)"><use fill="#e8e8e8" xlink:href="#e"/><use fill="#fff" fill-opacity="0" stroke="#4b4646" stroke-miterlimit="50" stroke-width="2" xlink:href="#e"/><use fill="#fff" fill-opacity="0" stroke="#24b6ef" stroke-miterlimit="50" stroke-width="4" clip-path="url(&quot;#f&quot;)" xlink:href="#a"/><use fill="#fff" fill-opacity="0" stroke="#24b6ef" stroke-miterlimit="50" stroke-width="4" clip-path="url(&quot;#g&quot;)" xlink:href="#b"/><use fill="#fff" fill-opacity="0" stroke="#24b6ef" stroke-miterlimit="50" stroke-width="2" clip-path="url(&quot;#h&quot;)" xlink:href="#c" opacity=".42"/><use fill="#fff" fill-opacity="0" stroke="#24b6ef" stroke-miterlimit="50" stroke-width="2" clip-path="url(&quot;#i&quot;)" xlink:href="#d" opacity=".34"/></g></svg>