<svg xmlns="http://www.w3.org/2000/svg" xmlns:xlink="http://www.w3.org/1999/xlink" width="81" height="94" viewBox="0 0 81 94"><defs><path id="a" d="M515.07 1729.22l-9.2-6.14 6.15-9.23 9.2 6.14z"/><path id="b" d="M516.25 1795.04l17.37 9.83-1.52 2.67-17.36-9.83a29.43 29.43 0 0 0-28.86 0l-17.36 9.83-1.52-2.67 17.37-9.83a32.3 32.3 0 0 1 7.1-2.95 4.63 4.63 0 0 1-2.97-5l2.59-19.37v-6.82l-.9.8a5.92 5.92 0 0 1-9.86-4.39v-12.52a4.61 4.61 0 0 1 5.37-4.54 4.73 4.73 0 0 1 3.85 4.7v4.88c2.08-1.9 4.6-4.18 4.72-4.28l.47-.39a9.2 9.2 0 0 1 5.57-1.91c2.24 0 4.4.84 6.09 2.33l9.02-3.05 1.43-9.26c.07-.46.22-.89.41-1.29l-11.63-7.39 1.65-2.59 12.28 7.8a4.54 4.54 0 0 1 6.28 4l15.26 9.69-1.65 2.59-14.1-8.96-1.73 9.48a4.24 4.24 0 0 1-2.74 3.23l-11.35 4.05v13.84l2.6 19.48a4.5 4.5 0 0 1-2.97 4.9 31.9 31.9 0 0 1 7.09 2.94zM494.16 1754l-.02 14.02-2.6 19.47c-.1.8.36 1.57 1.04 1.76.46.12.91.06 1.28-.19.37-.24.61-.62.67-1.06l2.89-21.72h5.77l2.88 21.59c.1.73.63 1.33 1.27 1.42.67.11 1.11-.21 1.3-.41.35-.33.51-.8.44-1.28l-2.62-19.78v-16.11l13.38-4.77c.39-.14.68-.48.76-.89l1.95-10.71-2.64-1.68-.03.08-1.71 11.1-12.64 4.28-.68-.75a6.16 6.16 0 0 0-8.21-.8l-.38.32-7.22 6.54-2.57 2.33v-11.81c0-.82-.55-1.56-1.26-1.67a1.54 1.54 0 0 0-1.81 1.51v12.52a2.84 2.84 0 0 0 4.74 2.1zm10.32 37.13a4.8 4.8 0 0 1-1.45-2.85l-2.53-18.93h-.38l-2.55 19.06c-.14 1.05-.65 2-1.41 2.72 2.76-.36 5.56-.36 8.32 0z"/><path id="c" d="M500.22 1743.42a9.23 9.23 0 0 1-9.22-9.21 9.23 9.23 0 0 1 18.45 0 9.23 9.23 0 0 1-9.23 9.21zm6.15-9.21a6.15 6.15 0 1 0-12.3.02 6.15 6.15 0 0 0 12.3-.02z"/><path id="d" d="M537.15 1756h-3.08v3.07H531v3.07h3.07v3.07h3.08v-3.07h3.07v-3.07h-3.07z"/><path id="e" d="M524.61 1771.14v-1.53h1.54v-3.07h-1.54V1765h-3.07v1.54H520v3.07h1.54v1.53z"/><path id="f" d="M534.15 1770h-3.08v3.07H528v3.07h3.07v3.07h3.08v-3.07h3.07v-3.07h-3.07z"/><path id="g" d="M477.07 1728.21h3.08v-3.07h3.07v-3.07h-3.07V1719h-3.08v3.07H474v3.07h3.07z"/><path id="h" d="M464.61 1723.14v-1.53h1.54v-3.07h-1.54V1717h-3.07v1.54H460v3.07h1.54v1.53z"/><path id="i" d="M469.15 1737.21v-3.07h3.07v-3.07h-3.07V1728h-3.08v3.07H463v3.07h3.07v3.07z"/></defs><g transform="translate(-460 -1714)"><use fill="#f9ba48" xlink:href="#a"/><use fill="#333" xlink:href="#b"/><use fill="#333" xlink:href="#c"/><use fill="#333" xlink:href="#d"/><use fill="#333" xlink:href="#e"/><use fill="#333" xlink:href="#f"/><use fill="#333" xlink:href="#g"/><use fill="#333" xlink:href="#h"/><use fill="#333" xlink:href="#i"/></g></svg>