<?xml version="1.0" standalone="no"?>
<!DOCTYPE svg PUBLIC "-//W3C//DTD SVG 20010904//EN"
 "http://www.w3.org/TR/2001/REC-SVG-20010904/DTD/svg10.dtd">
<svg version="1.0" xmlns="http://www.w3.org/2000/svg" width="83px"
 viewBox="0 0 431.000000 157.000000"
 preserveAspectRatio="xMidYMid meet">
<metadata>
Created by potrace 1.15, written by Peter Selinger 2001-2017
</metadata>
<g transform="translate(0.000000,157.000000) scale(0.100000,-0.100000)"
 fill="#ed1c24" stroke="none">
<path d="M197 1433 c-4 -3 -7 -298 -7 -655 l0 -648 675 0 675 0 -2 653 -3 652
-666 3 c-366 1 -669 -1 -672 -5z m490 -503 l2 -305 106 -3 105 -3 0 -144 0
-145 -255 0 -255 0 -2 451 c-2 248 -1 453 1 455 3 3 70 3 150 2 l146 -3 2
-305z m663 -145 l0 -455 -150 0 -150 0 0 305 0 305 -110 0 -110 0 0 150 0 150
260 0 260 0 0 -455z"/>
<path d="M1760 785 l0 -455 295 0 295 0 0 105 0 105 -185 0 -185 0 0 350 0
350 -110 0 -110 0 0 -455z"/>
<path d="M2440 925 l0 -315 105 0 105 0 0 315 0 315 -105 0 -105 0 0 -315z"/>
<path d="M2800 785 l0 -455 110 0 110 0 0 165 0 165 170 0 170 0 0 100 0 100
-170 0 -170 0 0 85 0 85 180 0 180 0 0 105 0 105 -290 0 -290 0 0 -455z"/>
<path d="M3510 785 l0 -455 295 0 295 0 0 105 0 105 -190 0 -191 0 3 72 3 73
183 3 182 2 0 95 0 95 -185 0 -185 0 0 75 0 75 190 0 190 0 0 105 0 105 -295
0 -295 0 0 -455z"/>
<path d="M2440 430 l0 -100 105 0 105 0 0 100 0 100 -105 0 -105 0 0 -100z"/>
</g>
</svg>
