<svg xmlns="http://www.w3.org/2000/svg" xmlns:xlink="http://www.w3.org/1999/xlink" width="97" height="40" viewBox="0 0 97 40"><defs><path id="6616a" d="M199.322 40h1.897L217 80h-1.89zm-1.257 1.108l.39-.968L214.188 80h-.772zm-.466 1.156l1.352 3.424-8.033 19.353h15.671l.859 2.175h-17.323L185.041 80H182.4zM154.006 40h.66v40h-.66zm-2.971 0h1.99v40h-1.99zm17.983 19.057c3.976 1.62 6.778 5.518 6.778 10.07 0 5.917-4.735 10.73-10.63 10.87V80h-9.51v-1.977h9.311c4.893-.036 8.849-4.005 8.849-8.896 0-4.891-3.956-8.86-8.849-8.896h-9.31v-1.977h8.65c4.489-.018 8.122-3.655 8.122-8.139 0-4.483-3.633-8.12-8.122-8.138h-8.65V40h8.65c5.583.018 10.103 4.54 10.103 10.115 0 3.876-2.185 7.243-5.392 8.942zM121.98 78.023h.99V40h.66v38.023h20.8V80H120V40h1.98z"/></defs><g><g transform="translate(-120 -40)"><use fill="#2a2837" xlink:href="#6616a"/></g></g></svg>