<?xml version="1.0" encoding="utf-8"?>
<!-- Generator: Adobe Illustrator 22.0.0, SVG Export Plug-In . SVG Version: 6.00 Build 0)  -->
<svg version="1.1" id="Layer_1" xmlns="http://www.w3.org/2000/svg" xmlns:xlink="http://www.w3.org/1999/xlink" x="0px" y="0px"
	 viewBox="0 0 238.9 55.1" style="enable-background:new 0 0 238.9 55.1;" xml:space="preserve">
<style type="text/css">
	.st0{fill:#D7722D;}
	.st1{fill:#E09330;}
	.st2{fill:#2F4396;}
</style>
<path class="st0" d="M21.3,37.3v17.9C32.2,43.9,39.2,27.6,39.6,9.4c-7.8-0.1-14.8-3.6-19.4-9.2C15.5,5.8,8.5,9.4,0.7,9.4
	C1,27.6,8,43.9,19,55.3v-18c-1-0.5-1.8-1.5-1.8-2.7c0-1.2,0.7-2.3,1.8-2.7c0.4-0.2,0.8-0.3,1.2-0.3c0.4,0,0.8,0.1,1.1,0.2
	c1.1,0.4,1.9,1.5,1.9,2.8C23.2,35.8,22.4,36.8,21.3,37.3z"/>
<path class="st1" d="M20.1,31.6C20.1,31.5,20.2,31.5,20.1,31.6c0.5,0,0.8,0.1,1.2,0.2c1.1,0.4,1.9,1.5,1.9,2.8
	c0,1.3-0.8,2.3-1.9,2.8v17.9C32.2,43.9,39.2,27.6,39.6,9.4c-7.8-0.1-14.8-3.6-19.4-9.2c0,0,0,0,0,0V31.6z"/>
<path class="st2" d="M74.7,18.1c0-1.1-0.2-2.2-0.5-3.1v0c-0.4-1-0.9-1.8-1.7-2.5c-0.8-0.7-1.7-1.2-2.9-1.6c-1.2-0.4-2.6-0.6-4.2-0.6
	h-7.5h-2.5v2c0,0.6,0.3,0.9,0.8,1.1c0,0,0.1,0,0.2,0c0.1,0,0.2,0,0.5,0.1c0.2,0.1,0.6,0.1,1,0.2v17.6c-0.4,0.1-0.8,0.1-1,0.2
	c-0.2,0-0.4,0.1-0.5,0.1c-0.1,0-0.2,0-0.2,0.1c-0.6,0.1-0.8,0.5-0.8,1.1v2h2.5h4.5h2.5v-2c0-0.6-0.3-0.9-0.8-1.1c0,0-0.1,0-0.2-0.1
	c-0.1,0-0.3-0.1-0.5-0.1c-0.2-0.1-0.6-0.1-1-0.2v-5.2h3c1.6,0,3-0.2,4.1-0.6c1.2-0.4,2.1-0.9,2.9-1.6c0.8-0.7,1.4-1.5,1.8-2.5
	C74.5,20.4,74.7,19.3,74.7,18.1 M69.8,20L69.8,20c-0.2,0.5-0.5,1-0.9,1.4c-0.4,0.4-0.9,0.7-1.5,0.9c-0.6,0.2-1.3,0.3-2.2,0.3h-3
	v-8.7h3c0.8,0,1.5,0.1,2.2,0.3c0.6,0.2,1.1,0.5,1.5,0.9c0.4,0.4,0.7,0.8,0.9,1.3c0.2,0.5,0.3,1.1,0.3,1.8
	C70.2,18.8,70.1,19.5,69.8,20 M99.5,32.1L99.5,32.1c-0.2-0.1-0.8-0.3-1.9-0.8l-8.2-20.9h-4.6l-8.2,20.9c-1.1,0.4-1.7,0.7-1.9,0.8
	C74.3,32.3,74,32.6,74,33v1.7h1.2h2.6h0.6h0.3h3.5V33c0-0.4-0.2-0.7-0.7-0.9c-0.1,0-0.3-0.1-0.7-0.3l0.1-0.2l1.3-3.4H92l1.2,3.3
	l0.1,0.4c-0.4,0.1-0.6,0.2-0.7,0.3C92.2,32.3,92,32.6,92,33v1.7h3.5h0.3h0.6H99h1.2V33C100.2,32.6,100,32.3,99.5,32.1 M83.5,25
	l2.8-7.5c0.1-0.4,0.3-0.8,0.5-1.3c0.1-0.5,0.3-1,0.5-1.6c0.1,0.6,0.3,1.1,0.5,1.6c0.2,0.5,0.3,0.9,0.5,1.3l2.8,7.5H83.5z M119,10.4
	h0.6v5.7h-0.2h-0.4h-1.4c-0.4,0-0.7-0.2-0.8-0.6c0-0.2-0.1-0.7-0.2-1.4h-5v17.3c0.4,0.1,0.7,0.1,1,0.2c0.2,0.1,0.4,0.1,0.5,0.1
	c0.1,0,0.2,0,0.2,0.1c0.6,0.1,0.8,0.5,0.8,1.1v2h-2.5h-4.5h-2.6v-2c0-0.6,0.3-0.9,0.8-1.1c0.1,0,0.1,0,0.2-0.1c0.1,0,0.2,0,0.5-0.1
	c0.2-0.1,0.6-0.1,1-0.2V14.1h-5c-0.1,0.7-0.1,1.2-0.2,1.4c-0.1,0.4-0.3,0.6-0.8,0.6h-1.4h-0.4h-0.2v-5.7h0.5h0.1H119L119,10.4z
	 M125.1,10.4l15.3,0.1v2.3v1.3v2.8h-0.2h-0.4h-1.4c-0.4,0-0.7-0.2-0.8-0.6c-0.1-0.3-0.1-1-0.3-2.2h-7.8v6.7h8.2v3.5h-8.2v6.9h7.8
	c0.1-1.2,0.2-1.9,0.3-2.2c0.1-0.4,0.3-0.6,0.8-0.6h1.4h0.4h0.2v2.8v1.3v2.4h-15.3h-2.5v-2c0-0.6,0.3-0.9,0.8-1.1c0,0,0.1,0,0.2,0
	c0.1,0,0.3-0.1,0.5-0.1c0.2,0,0.6-0.1,1-0.2V13.8c-0.4-0.1-0.8-0.1-1-0.2c-0.2-0.1-0.4-0.1-0.5-0.1c-0.1,0-0.2,0-0.2,0
	c-0.6-0.1-0.8-0.5-0.8-1.1v-2H125.1z M166.9,10.4l2.6,0v2c0,0.6-0.3,0.9-0.8,1.1c0,0-0.1,0-0.2,0c-0.1,0-0.3,0.1-0.5,0.1
	c-0.2,0.1-0.6,0.1-1,0.2v21h-2.3c-0.4,0-0.7,0-0.9-0.2c-0.2-0.1-0.5-0.3-0.7-0.6l-12.7-16.2c0,0.4,0,0.7,0.1,1.1c0,0.3,0,0.7,0,1
	v11.6c1.4,0.2,2.1,0.3,2.2,0.3c0.6,0.1,0.8,0.5,0.8,1.1v2h-3h-4h-2.5v-2c0-0.6,0.3-0.9,0.8-1.1c0.1,0,0.1,0,0.2-0.1
	c0.1,0,0.3-0.1,0.5-0.1c0.2,0,0.6-0.1,1-0.2V13.8c-0.4-0.1-0.8-0.1-1-0.2c-0.2,0-0.4-0.1-0.5-0.1c-0.1,0-0.1,0-0.2,0
	c-0.6-0.1-0.8-0.5-0.8-1.1v-2h2.5h2.4c0.2,0,0.4,0,0.5,0c0.1,0,0.3,0.1,0.4,0.1c0.1,0,0.2,0.1,0.3,0.2c0.1,0.1,0.2,0.2,0.3,0.4
	L163,27.4c-0.1-0.4-0.1-0.8-0.1-1.1c0-0.4,0-0.7,0-1V13.8c-1.4-0.2-2.1-0.3-2.2-0.3c-0.6-0.1-0.8-0.5-0.8-1.1v-2h3H166.9z
	 M191.9,10.4h0.6v5.7h-0.1h-0.4h-1.4c-0.4,0-0.7-0.2-0.8-0.6c0-0.2-0.1-0.7-0.2-1.4h-5v17.3c0.4,0.1,0.8,0.1,1,0.2
	c0.2,0.1,0.4,0.1,0.5,0.1c0.1,0,0.1,0,0.2,0.1c0.6,0.1,0.8,0.5,0.8,1.1v2h-2.5h-4.5h-2.6v-2c0-0.6,0.3-0.9,0.8-1.1
	c0,0,0.1,0,0.2-0.1c0.1,0,0.3,0,0.5-0.1c0.2-0.1,0.6-0.1,1-0.2V14.1h-5c-0.1,0.7-0.1,1.2-0.2,1.4c-0.1,0.4-0.4,0.6-0.8,0.6h-1.4
	h-0.4h-0.2v-5.7h0.5h0H191.9L191.9,10.4z M218.2,10.4l2.6,0v2c0,0.6-0.3,0.9-0.8,1.1c-0.1,0-0.1,0-0.2,0.1c-0.1,0-0.2,0-0.5,0.1
	c-0.2,0-0.6,0.1-1,0.2V25c0,1.4-0.2,2.8-0.7,4c-0.5,1.2-1.1,2.3-2,3.2c-0.9,0.9-1.9,1.6-3.2,2.1c-1.2,0.5-2.6,0.8-4.2,0.8
	c-1.6,0-3-0.3-4.2-0.8c-1.2-0.5-2.3-1.2-3.2-2.1c-0.9-0.9-1.5-2-2-3.2c-0.5-1.2-0.7-2.5-0.7-4V13.7c-0.4-0.1-0.8-0.1-1-0.2
	c-0.2-0.1-0.4-0.1-0.5-0.1c-0.1,0-0.1,0-0.2-0.1c-0.5-0.1-0.8-0.5-0.8-1.1v-2h2.5h4.5h2.7v2c0,0.6-0.3,0.9-0.8,1.1
	c0,0-0.1,0-0.2,0.1c-0.1,0-0.3,0-0.6,0.1c-0.3,0-0.6,0.1-1,0.2V25c0,0.9,0.1,1.8,0.4,2.5c0.3,0.8,0.6,1.4,1.1,1.9
	c0.5,0.5,1.1,1,1.7,1.2c0.7,0.3,1.5,0.4,2.3,0.4c0.9,0,1.7-0.2,2.4-0.4c0.7-0.3,1.3-0.7,1.7-1.2c0.5-0.5,0.8-1.1,1.1-1.9
	c0.3-0.8,0.4-1.6,0.4-2.5V13.8c-0.4-0.1-0.8-0.1-1-0.2c-0.3-0.1-0.5-0.1-0.6-0.1c-0.1,0-0.2,0-0.2,0c-0.6-0.1-0.8-0.5-0.8-1.1v-2
	h2.7H218.2z M238.5,27.1c0.1,1.1-0.2,2.1-0.6,3.1c-0.4,1-0.9,1.8-1.6,2.5c-0.7,0.7-1.6,1.3-2.6,1.7c-1,0.4-2.2,0.6-3.6,0.6h-0.5
	c-2.2,0-4.5-0.4-7-1.3V33v-5.6h0.2h0.4h1.4c0.4,0,0.7,0.2,0.8,0.6c0.1,0.3,0.2,1.2,0.3,2.8c1,0.3,2.5,0.5,4.6,0.5
	c1.3,0,2.3-0.3,3-0.9c0.7-0.6,1.1-1.5,1.1-2.6c0-0.6-0.1-1.2-0.5-1.6c-0.3-0.4-0.7-0.7-1.3-1c-0.5-0.3-1.1-0.5-1.8-0.7
	c-0.7-0.2-1.4-0.4-2-0.6c-0.7-0.2-1.4-0.5-2.1-0.8c-0.7-0.3-1.3-0.7-1.8-1.2c-0.5-0.5-0.9-1.1-1.3-1.9c-0.3-0.8-0.5-1.7-0.5-2.8
	c0-0.9,0.2-1.8,0.5-2.6c0.3-0.8,0.9-1.6,1.5-2.2c0.7-0.7,1.5-1.2,2.5-1.6c1-0.4,2.1-0.6,3.4-0.6c2.4,0,4.7,0.5,7,1.4v6.2H238h-0.4
	h-1.4c-0.4,0-0.7-0.2-0.8-0.6c0-0.3-0.1-1.2-0.3-2.7c-0.8-0.4-2.1-0.6-3.9-0.6c-0.6,0-1.2,0.1-1.6,0.2c-0.5,0.1-0.9,0.4-1.2,0.6
	c-0.3,0.3-0.6,0.6-0.7,1c-0.2,0.4-0.2,0.8-0.2,1.2c0,0.6,0.1,1,0.5,1.4c0.3,0.4,0.7,0.7,1.3,1c0.5,0.3,1.1,0.5,1.8,0.7
	c0.7,0.2,1.4,0.4,2.1,0.7c0.7,0.2,1.4,0.5,2.1,0.8c0.7,0.3,1.3,0.7,1.8,1.2c0.5,0.5,1,1,1.3,1.8C238.4,25.1,238.5,26.4,238.5,27.1z
	 M60,44.3c0.5,0.4,0.7,1.1,0.7,1.9c0,0.9-0.3,1.5-0.8,1.9c-0.5,0.4-1.3,0.6-2.3,0.6h-0.9v2h-1.6v-7h2.5C58.8,43.7,59.5,43.9,60,44.3
	z M58.9,47.1c0.2-0.2,0.3-0.5,0.3-0.9c0-0.4-0.1-0.7-0.4-0.9c-0.2-0.2-0.6-0.3-1.1-0.3h-0.9v2.4h1.1C58.3,47.4,58.7,47.3,58.9,47.1z
	 M66.6,50.7L66,49.2h-3l-0.7,1.5h-1.7l3-7h1.5l3,7H66.6z M64.5,45.8l-0.9,2h1.8L64.5,45.8z M71.6,45v5.7H70V45h-2v-1.4h5.6V45H71.6z
	 M79.8,43.7v1.4h-3.5v1.4h3.2v1.3h-3.2v1.5h3.6v1.4h-5.2v-7H79.8z M86.2,43.7h1.6v7h-1.6l-3.4-4.4v4.4h-1.6v-7h1.5l3.5,4.5V43.7z
	 M92.5,45v5.7h-1.6V45h-2v-1.4h5.6V45H92.5z M102.4,50.1c-0.6,0.5-1.2,0.7-1.9,0.7c-0.7,0-1.4-0.2-1.8-0.6c-0.5-0.4-0.7-0.9-0.7-1.6
	c0-0.7,0.5-1.4,1.5-2c-0.2-0.3-0.4-0.5-0.5-0.7c-0.1-0.2-0.2-0.4-0.2-0.7c0-0.6,0.2-1,0.6-1.3c0.4-0.3,0.9-0.5,1.5-0.5
	c0.6,0,1,0.2,1.4,0.4c0.4,0.3,0.6,0.7,0.6,1.2c0,0.7-0.5,1.3-1.4,1.8c0.4,0.5,0.7,0.8,0.8,1c0.2-0.3,0.3-0.6,0.4-1l1.2,0.8
	c-0.2,0.4-0.3,0.8-0.6,1.2l1,1l-1,0.9L102.4,50.1z M99.7,49.3c0.2,0.2,0.4,0.2,0.8,0.2c0.3,0,0.6-0.1,1-0.4c-0.5-0.5-0.9-1-1.3-1.4
	c-0.5,0.3-0.8,0.7-0.8,1C99.4,49,99.5,49.2,99.7,49.3z M100.8,44.7c-0.2,0-0.3,0-0.4,0.2c-0.1,0.1-0.2,0.2-0.2,0.4
	c0,0.2,0.1,0.4,0.4,0.8c0.5-0.3,0.8-0.5,0.8-0.8c0-0.2-0.1-0.3-0.2-0.4C101.1,44.8,101,44.7,100.8,44.7z M111,45v5.7h-1.6V45h-2
	v-1.4h5.6V45H111z M119.9,46c0,1.1-0.4,1.9-1.3,2.2l1.8,2.5h-1.9l-1.6-2.2h-1.1v2.2h-1.6v-7h2.7c1.1,0,1.9,0.2,2.3,0.6
	C119.6,44.6,119.9,45.2,119.9,46z M118,46.9c0.2-0.2,0.3-0.5,0.3-0.8c0-0.4-0.1-0.6-0.3-0.8c-0.2-0.1-0.6-0.2-1.1-0.2h-1.2v2.1h1.2
	C117.4,47.1,117.8,47,118,46.9z M126.5,50.7l-0.7-1.5h-3l-0.7,1.5h-1.7l3-7h1.5l3,7H126.5z M124.4,45.8l-0.9,2h1.8L124.4,45.8z
	 M134.4,44.6c0.7,0.6,1,1.5,1,2.6c0,1.1-0.3,2-1,2.6c-0.7,0.6-1.7,1-3,1H129v-7h2.5C132.7,43.7,133.7,44,134.4,44.6z M133.2,48.8
	c0.4-0.4,0.6-0.9,0.6-1.6c0-0.7-0.2-1.2-0.6-1.6c-0.4-0.4-1-0.6-1.8-0.6h-0.9v4.3h1C132.3,49.3,132.8,49.1,133.2,48.8z M141.8,43.7
	v1.4h-3.5v1.4h3.2v1.3h-3.2v1.5h3.6v1.4h-5.2v-7H141.8z M149.6,46.3l-1.9,3.8h-0.9l-1.9-3.8v4.4h-1.6v-7h2.1l1.8,3.9l1.8-3.9h2.1v7
	h-1.6V46.3z M157.9,50.7l-0.7-1.5h-3l-0.7,1.5H152l3-7h1.5l3,7H157.9z M155.8,45.8l-0.9,2h1.8L155.8,45.8z M166.1,46
	c0,1.1-0.4,1.9-1.3,2.2l1.8,2.5h-1.9l-1.6-2.2H162v2.2h-1.6v-7h2.7c1.1,0,1.9,0.2,2.3,0.6C165.9,44.6,166.1,45.2,166.1,46z
	 M164.2,46.9c0.2-0.2,0.3-0.5,0.3-0.8c0-0.4-0.1-0.6-0.3-0.8c-0.2-0.1-0.6-0.2-1.1-0.2H162v2.1h1.1C163.7,47.1,164,47,164.2,46.9z
	 M167.7,43.7h1.6v2.9l2.7-2.9h2l-2.8,3.1c0.2,0.3,0.7,1,1.3,1.9c0.7,0.9,1.1,1.6,1.5,2h-1.8l-2.1-2.8l-0.7,0.8v2h-1.6V43.7z
	 M182.6,50.7l-0.6-1.5h-3l-0.7,1.5h-1.7l3-7h1.5l3,7H182.6z M180.4,45.8l-0.9,2h1.8L180.4,45.8z M187.5,45v5.7H186V45h-2v-1.4h5.6
	V45H187.5z M193.6,45v5.7h-1.6V45h-2v-1.4h5.6V45H193.6z M202.5,49.7c-0.7,0.7-1.6,1-2.6,1s-1.9-0.4-2.6-1c-0.7-0.7-1.1-1.6-1.1-2.6
	c0-1,0.4-1.9,1.1-2.6c0.7-0.7,1.6-1,2.6-1s1.9,0.4,2.6,1c0.7,0.7,1.1,1.6,1.1,2.6C203.6,48.2,203.2,49,202.5,49.7z M202,47.2
	c0-0.6-0.2-1.2-0.6-1.6c-0.4-0.4-0.9-0.7-1.5-0.7c-0.6,0-1.1,0.2-1.5,0.7c-0.4,0.4-0.6,1-0.6,1.6c0,0.6,0.2,1.2,0.6,1.6
	c0.4,0.4,0.9,0.7,1.5,0.7c0.6,0,1.1-0.2,1.5-0.7C201.8,48.3,202,47.8,202,47.2z M210.6,46c0,1.1-0.4,1.9-1.3,2.2l1.8,2.5h-1.9
	l-1.6-2.2h-1.1v2.2h-1.6v-7h2.7c1.1,0,1.9,0.2,2.3,0.6C210.4,44.6,210.6,45.2,210.6,46z M208.7,46.9c0.2-0.2,0.3-0.5,0.3-0.8
	c0-0.4-0.1-0.6-0.3-0.8c-0.2-0.1-0.6-0.2-1.1-0.2h-1.2v2.1h1.2C208.2,47.1,208.5,47,208.7,46.9z M217.2,43.7h1.6v7h-1.6l-3.4-4.4
	v4.4h-1.6v-7h1.5l3.5,4.5V43.7z M225.6,43.7v1.4h-3.5v1.4h3.2v1.3h-3.2v1.5h3.6v1.4h-5.2v-7H225.6z M230.1,50.7h-1.6v-2.8l-2.4-4.3
	h1.7l1.5,2.6l1.5-2.6h1.7l-2.4,4.3V50.7z M234.8,45.1c-0.2,0.1-0.2,0.3-0.2,0.5c0,0.2,0.1,0.4,0.3,0.5c0.2,0.1,0.6,0.3,1.3,0.4
	c0.7,0.2,1.2,0.4,1.6,0.7c0.4,0.3,0.6,0.8,0.6,1.4c0,0.6-0.2,1.1-0.7,1.5c-0.5,0.4-1.1,0.6-1.9,0.6c-1.1,0-2.1-0.4-3-1.2l0.9-1.2
	c0.8,0.7,1.5,1,2.1,1c0.3,0,0.5-0.1,0.7-0.2c0.2-0.1,0.2-0.3,0.2-0.5c0-0.2-0.1-0.4-0.3-0.5c-0.2-0.1-0.5-0.2-1-0.4
	c-0.8-0.2-1.4-0.5-1.8-0.8c-0.4-0.3-0.6-0.8-0.6-1.5c0-0.7,0.2-1.2,0.7-1.5c0.5-0.4,1.1-0.5,1.8-0.5c0.5,0,0.9,0.1,1.4,0.2
	c0.5,0.2,0.9,0.4,1.2,0.7l-0.8,1.1c-0.6-0.5-1.2-0.7-1.9-0.7C235.2,44.9,235,45,234.8,45.1z"/>
</svg>
