<?xml version="1.0" standalone="no"?>
<!DOCTYPE svg PUBLIC "-//W3C//DTD SVG 20010904//EN"
 "http://www.w3.org/TR/2001/REC-SVG-20010904/DTD/svg10.dtd">
<svg version="1.0" xmlns="http://www.w3.org/2000/svg"
 width="24px" viewBox="0 0 400.000000 400.000000"
 preserveAspectRatio="xMidYMid meet">
<metadata>
Created by potrace 1.15, written by Peter Selinger 2001-2017
</metadata>
<g transform="translate(0.000000,400.000000) scale(0.100000,-0.100000)"
fill="#000000" stroke="none">
<path d="M1620 3989 c-16 -5 -5 -6 30 -3 40 3 25 -3 -57 -20 -137 -30 -318
-90 -437 -145 -89 -41 -114 -50 -86 -30 13 9 13 10 0 6 -8 -2 -14 -9 -13 -14
1 -6 -38 -34 -86 -62 -130 -77 -252 -171 -381 -295 -112 -107 -113 -108 -25
-17 106 109 225 206 352 287 121 78 138 90 78 58 -137 -75 -262 -170 -413
-318 -108 -106 -147 -152 -109 -130 6 4 3 -2 -7 -14 -23 -26 -34 -29 -15 -4
11 13 9 13 -9 -2 -12 -11 -21 -25 -18 -32 3 -7 -3 -18 -12 -26 -16 -12 -16
-11 -2 7 15 20 14 20 -8 1 -23 -20 -31 -42 -9 -30 8 5 8 2 -2 -9 -16 -20 -26
-23 -15 -4 5 8 2 8 -9 -2 -20 -16 -23 -36 -4 -25 8 5 8 2 -2 -9 -16 -20 -25
-22 -16 -4 4 6 -5 -1 -19 -18 -30 -34 -34 -54 -8 -34 15 13 16 12 3 -3 -7 -10
-17 -15 -22 -13 -4 3 -15 -8 -24 -24 -18 -36 -19 -44 -2 -35 7 4 9 3 4 -2 -5
-5 -14 -9 -19 -9 -6 0 -13 -6 -16 -14 -3 -9 0 -11 9 -6 8 5 11 4 6 -1 -5 -5
-14 -9 -20 -9 -7 0 -12 -10 -11 -22 0 -12 -3 -20 -7 -17 -12 7 -41 -55 -35
-72 3 -7 0 -13 -6 -11 -6 1 -13 -4 -16 -12 -3 -8 0 -11 7 -7 7 5 9 1 5 -8 -3
-9 -10 -13 -15 -11 -10 7 -27 -33 -73 -165 -33 -93 -56 -188 -37 -145 l10 20
0 -20 c0 -11 -4 -29 -9 -40 l-9 -20 -1 20 c-2 17 -3 16 -10 -5 -4 -14 -8 -34
-8 -45 0 -16 2 -15 8 5 6 20 8 21 8 5 0 -11 -4 -33 -8 -50 -7 -28 -8 -29 -10
-5 l-2 25 -8 -26 c-10 -34 -10 -724 0 -758 l8 -26 2 25 c2 24 3 23 10 -5 4
-16 8 -39 8 -50 0 -16 -2 -15 -8 5 -6 20 -8 21 -8 5 0 -11 4 -31 8 -45 7 -21
8 -22 10 -5 l1 20 9 -20 c5 -11 9 -29 9 -40 l0 -20 -9 20 c-5 13 -9 14 -9 5 0
-23 17 -59 19 -40 1 8 15 -23 31 -69 16 -47 27 -86 25 -89 -2 -2 -15 29 -27
68 -13 39 -25 67 -27 62 -4 -12 56 -179 80 -222 10 -19 17 -27 14 -18 -3 10
-9 26 -12 35 -3 10 4 2 15 -17 23 -40 26 -54 10 -44 -7 4 -10 1 -7 -7 3 -8 10
-13 15 -12 5 1 9 -8 9 -20 -1 -12 4 -21 11 -20 7 2 10 -3 7 -10 -6 -17 45
-109 56 -102 5 3 12 0 16 -6 4 -8 3 -9 -4 -5 -15 9 -15 1 -1 -25 5 -11 14 -17
19 -14 5 3 12 0 16 -6 5 -8 3 -9 -6 -4 -8 5 -11 3 -8 -6 3 -8 10 -14 16 -14 5
0 14 -4 19 -9 5 -5 3 -6 -4 -2 -22 12 -14 -12 13 -41 14 -15 22 -22 18 -14 -4
9 -3 12 4 7 6 -4 9 -12 6 -19 -2 -7 10 -28 27 -47 17 -19 25 -26 18 -15 -14
20 -13 20 9 1 23 -20 30 -32 12 -21 -19 12 -10 -12 12 -31 22 -19 23 -19 8 1
-15 20 -14 20 8 1 23 -20 30 -32 12 -21 -5 3 -10 2 -10 -3 0 -5 55 -62 123
-128 111 -109 236 -211 327 -266 55 -34 23 -7 -65 54 -44 31 -100 75 -125 98
-38 35 -36 34 17 -8 280 -226 616 -372 978 -427 133 -20 437 -20 570 0 362 55
698 201 978 427 53 42 55 43 17 8 -25 -23 -81 -67 -125 -98 -44 -30 -84 -60
-90 -65 -19 -20 60 32 145 95 119 87 392 355 318 312 -7 -4 -4 2 6 14 23 26
34 29 15 5 -11 -15 -10 -14 9 1 23 20 31 42 10 30 -7 -4 -4 2 6 14 23 26 33
29 16 5 -7 -10 2 -2 19 17 17 19 29 40 27 47 -3 7 0 15 6 19 7 5 8 2 4 -7 -4
-8 4 -1 18 14 27 29 35 54 14 41 -7 -4 -8 -3 -4 5 4 6 11 9 16 6 12 -7 33 32
25 45 -4 6 -1 9 6 8 6 -2 14 3 17 11 3 9 0 11 -8 6 -9 -5 -11 -4 -6 4 4 6 11
9 16 6 11 -7 62 85 56 102 -3 7 0 12 7 10 7 -1 12 8 11 20 0 12 3 20 7 17 13
-7 120 256 118 289 0 7 -11 -19 -25 -57 -22 -64 -46 -112 -28 -56 4 14 22 72
40 130 18 58 34 96 35 85 1 -17 2 -16 9 5 4 14 8 34 8 45 0 16 -2 15 -8 -5 -6
-20 -8 -21 -8 -5 0 11 4 34 8 50 7 28 8 29 10 5 l2 -25 8 26 c10 34 10 724 0
758 l-8 26 -2 -25 c-2 -24 -3 -23 -10 5 -4 17 -8 39 -8 50 0 16 2 15 8 -5 6
-20 8 -21 8 -5 0 11 -4 31 -8 45 -7 21 -8 22 -10 5 -2 -17 -3 -16 -10 5 -11
35 -11 60 1 35 19 -43 -4 52 -37 145 -46 132 -63 172 -73 165 -5 -2 -12 2 -15
11 -4 9 -2 13 5 8 7 -4 10 -1 7 7 -3 8 -10 13 -16 12 -6 -2 -9 4 -6 11 6 17
-23 79 -35 72 -4 -3 -7 5 -7 17 1 12 -4 22 -11 22 -6 0 -15 4 -20 9 -5 5 -2 6
6 1 9 -5 12 -3 9 6 -3 8 -10 14 -15 14 -6 0 -15 4 -20 9 -5 5 -3 6 5 2 16 -9
15 -1 -3 35 -9 16 -20 27 -24 24 -5 -2 -15 3 -22 13 -13 15 -12 16 4 3 25 -20
21 0 -9 34 -14 17 -23 24 -19 18 9 -18 0 -16 -16 4 -10 11 -10 14 -1 9 18 -11
15 9 -5 25 -11 10 -14 10 -9 2 11 -19 1 -16 -15 4 -10 11 -10 14 -1 9 21 -12
13 10 -10 30 -22 19 -23 19 -8 -1 14 -18 14 -19 -2 -7 -9 8 -15 19 -12 26 3 7
-6 21 -18 32 -23 19 -23 19 -8 -1 15 -20 14 -20 -8 -1 -23 20 -30 32 -12 21
65 -40 -194 220 -295 296 -80 61 -169 120 -230 153 -60 32 -43 20 78 -58 127
-81 246 -178 352 -287 88 -91 87 -90 -25 17 -129 124 -251 218 -381 295 -48
28 -87 56 -86 62 1 5 -5 12 -13 14 -13 4 -13 3 0 -6 28 -20 3 -11 -86 30 -119
55 -300 115 -437 145 -81 17 -97 23 -57 19 38 -3 47 -1 29 4 -33 11 -725 11
-759 0z m566 -70 c206 -20 421 -77 597 -157 66 -30 75 -37 60 -45 -10 -6 -61
-51 -113 -101 -86 -83 -160 -144 -160 -133 0 2 21 21 47 41 25 20 43 36 39 36
-4 0 -33 -20 -64 -44 -31 -24 -81 -58 -109 -75 -29 -18 -53 -35 -53 -37 0 -6
36 13 90 48 26 17 34 20 21 8 -33 -28 -124 -81 -188 -108 -118 -50 -217 -48
-278 4 l-30 26 32 -21 c45 -30 54 -26 13 7 -19 15 -38 27 -41 27 -4 0 -11 4
-16 9 -5 5 -3 6 5 2 6 -4 12 -6 12 -4 0 10 -50 121 -50 113 -1 -21 -18 22 -25
64 l-7 44 -57 -6 c-64 -7 -204 -49 -230 -69 -9 -7 -6 -3 7 10 13 12 20 22 16
22 -11 0 -64 -52 -64 -62 0 -5 5 -6 12 -2 7 4 8 3 4 -5 -4 -6 -11 -9 -16 -6
-5 3 -16 -8 -25 -24 -18 -36 -19 -45 -3 -35 7 4 8 3 4 -5 -4 -6 -11 -9 -16 -6
-5 3 -21 -17 -35 -44 -26 -51 -33 -78 -14 -51 9 13 10 13 6 0 -2 -8 -9 -15
-16 -15 -7 0 -19 -11 -26 -25 -18 -31 -19 -43 -2 -34 7 4 9 3 4 -2 -5 -5 -14
-9 -20 -9 -5 0 -12 -6 -15 -14 -3 -9 0 -11 8 -6 9 5 11 4 6 -4 -4 -6 -11 -9
-16 -6 -5 3 -14 -3 -19 -14 -14 -26 -14 -34 1 -25 7 4 8 3 4 -5 -4 -6 -11 -9
-16 -6 -12 7 -33 -32 -25 -45 4 -6 1 -9 -6 -8 -6 2 -14 -3 -17 -11 -3 -9 0
-11 9 -6 8 5 11 4 6 -1 -5 -5 -14 -9 -19 -9 -6 0 -13 -6 -16 -14 -3 -9 0 -11
8 -6 9 5 11 4 6 -4 -4 -6 -11 -9 -16 -6 -12 7 -63 -82 -55 -95 4 -6 1 -9 -6
-8 -6 2 -14 -3 -17 -11 -3 -9 0 -11 9 -6 8 5 11 4 6 -1 -5 -5 -14 -9 -19 -9
-6 0 -13 -6 -16 -14 -3 -9 0 -11 8 -6 9 5 11 4 6 -4 -4 -6 -11 -9 -16 -6 -12
7 -43 -52 -35 -66 4 -5 1 -8 -6 -7 -6 2 -14 -3 -17 -11 -3 -9 0 -11 8 -6 9 5
11 4 6 -4 -4 -6 -11 -9 -16 -6 -5 3 -16 -8 -25 -24 -18 -36 -19 -45 -3 -35 7
4 8 3 4 -5 -4 -6 -11 -9 -16 -6 -11 7 -62 -86 -55 -102 2 -8 0 -11 -5 -8 -12
8 -83 -133 -76 -151 3 -8 0 -13 -5 -11 -11 2 -58 -106 -58 -133 0 -8 7 4 16
28 21 59 26 48 7 -15 -20 -68 -15 -147 8 -151 18 -4 436 158 476 184 12 8 22
12 22 9 0 -3 -15 -14 -32 -25 -18 -11 -28 -20 -22 -20 21 0 65 42 60 57 -3 8
-2 11 4 8 5 -3 16 8 25 24 17 34 21 66 5 41 -5 -8 -10 -10 -10 -5 0 6 9 18 20
28 11 9 20 25 19 34 0 14 -2 13 -9 -4 -19 -46 -17 -21 4 52 13 49 23 69 27 57
5 -13 8 -9 14 16 4 18 4 36 1 39 -3 4 -6 -2 -6 -12 0 -10 -3 -16 -6 -13 -3 3
16 101 42 218 28 122 51 204 54 194 6 -15 8 -14 13 7 10 37 8 58 -4 34 -8 -17
-9 -17 -4 5 2 14 5 32 6 40 0 11 3 10 8 -4 5 -14 11 -3 25 44 11 40 13 65 7
69 -6 4 -6 12 -1 21 9 13 10 13 11 0 0 -8 9 3 19 25 22 48 24 59 8 49 -7 -5
-8 -3 -3 6 6 10 11 9 22 -5 13 -18 13 -18 14 1 1 15 3 14 9 -6 11 -34 11 -60
0 -35 l-9 20 0 -20 c-1 -25 18 -59 20 -35 0 10 3 8 9 -5 12 -27 12 -43 0 -25
-9 13 -10 13 -10 0 0 -26 97 -214 121 -235 18 -15 20 -16 10 -2 -21 27 -7 20
20 -10 13 -15 16 -21 7 -14 -10 7 -18 9 -18 3 0 -15 26 -33 35 -24 5 4 5 2 1
-5 -3 -7 7 -21 26 -34 l33 -23 -20 23 c-19 23 -19 23 17 -2 62 -41 123 -51
203 -32 74 17 161 53 238 97 53 31 76 37 37 10 -26 -18 -43 -61 -18 -46 7 4 4
-2 -6 -14 -11 -12 -21 -20 -24 -17 -7 7 -42 -25 -42 -38 0 -5 8 -4 18 3 9 7
-17 -21 -58 -61 -41 -41 -95 -89 -120 -107 -44 -33 -44 -33 5 9 28 24 75 68
105 98 44 43 39 40 -25 -16 -114 -98 -154 -129 -297 -227 -71 -48 -128 -90
-128 -92 0 -2 42 23 93 57 50 34 85 55 77 47 -21 -21 -300 -210 -300 -204 0 3
27 24 60 46 33 22 60 43 60 46 0 22 -427 -305 -429 -329 -1 -5 32 20 72 55 39
36 101 86 137 113 36 27 71 53 78 58 6 5 12 7 12 4 0 -2 -43 -37 -97 -77 -53
-40 -150 -125 -217 -189 -67 -63 -108 -100 -91 -81 28 33 27 33 -13 -5 -39
-36 -61 -73 -27 -45 26 22 16 4 -12 -21 -22 -19 -25 -20 -14 -4 7 11 -1 4 -18
-15 -17 -19 -29 -40 -27 -47 3 -6 -3 -17 -12 -25 -15 -12 -16 -11 -3 7 7 11
-1 4 -18 -15 -34 -37 -42 -61 -13 -39 15 13 16 12 3 -3 -7 -10 -17 -15 -22
-13 -4 3 -13 -3 -18 -14 -14 -26 -14 -34 1 -25 7 4 8 3 4 -5 -4 -6 -11 -9 -16
-6 -5 3 -14 -3 -19 -14 -14 -26 -14 -34 1 -25 7 4 8 3 4 -5 -4 -6 -11 -9 -16
-6 -5 3 -30 -35 -55 -84 -47 -95 -51 -106 -35 -96 6 3 7 -1 4 -9 -3 -9 -10
-14 -14 -11 -4 3 -19 -23 -34 -56 -26 -60 -35 -98 -16 -69 12 18 12 2 0 -25
-6 -13 -9 -15 -9 -5 -1 13 -2 13 -11 0 -5 -8 -10 -22 -10 -30 0 -13 1 -13 10
0 14 22 12 2 -6 -55 -50 -164 -67 -414 -39 -570 17 -92 17 -97 4 -70 -7 16 -8
13 -4 -13 7 -47 60 -177 73 -177 6 0 14 -4 19 -9 5 -5 3 -6 -4 -2 -16 9 -16 1
-2 -25 5 -11 14 -17 19 -14 5 3 12 0 16 -6 4 -8 3 -9 -4 -5 -18 11 -14 -10 5
-25 11 -10 14 -10 9 -1 -11 18 -1 15 15 -5 12 -14 12 -16 0 -9 -9 6 -12 5 -10
-3 3 -7 8 -12 13 -11 4 1 27 -16 50 -37 22 -22 54 -49 70 -61 43 -33 25 -27
-86 29 -121 61 -260 146 -308 189 l-35 31 40 -27 40 -27 -40 36 c-38 35 -63
48 -50 27 12 -19 -2 -10 -26 17 l-24 28 25 -20 25 -20 -24 28 c-23 26 -49 38
-36 17 14 -23 -6 -5 -105 97 -58 59 -97 101 -87 94 25 -19 21 2 -5 25 -12 10
-18 13 -14 7 11 -20 1 -15 -20 9 -15 19 -16 20 -1 9 25 -19 21 2 -5 25 -12 10
-18 13 -14 7 11 -20 1 -15 -20 9 -15 19 -16 20 -1 9 25 -19 21 2 -5 25 -12 10
-18 13 -14 7 10 -19 1 -16 -15 4 -12 14 -12 16 0 9 9 -6 12 -4 9 5 -3 8 -10
14 -16 14 -5 0 -14 4 -19 9 -5 5 -2 6 6 1 9 -5 12 -3 9 6 -3 8 -10 14 -16 14
-5 0 -14 4 -19 9 -5 5 -2 6 6 1 9 -5 12 -3 9 6 -3 8 -11 13 -17 11 -7 -1 -10
2 -6 7 8 14 -23 73 -35 66 -5 -3 -12 0 -16 6 -4 8 -3 9 4 5 16 -10 15 -1 -3
35 -9 16 -19 27 -24 25 -4 -3 -7 5 -7 17 1 13 -4 21 -12 19 -8 -1 -11 2 -7 8
6 9 -59 176 -73 190 -3 3 -3 -2 0 -10 3 -8 8 -26 12 -40 5 -20 3 -19 -8 5 -20
43 -30 84 -17 65 10 -13 11 -13 11 0 0 8 -5 22 -10 30 -9 13 -10 13 -10 0 0
-13 -1 -13 -10 0 -5 8 -10 22 -10 30 0 13 1 13 10 0 14 -21 12 -8 -7 61 -12
43 -19 56 -23 43 -4 -11 -13 14 -25 69 -10 48 -15 90 -12 94 4 3 7 -6 7 -22 0
-16 3 -26 6 -22 3 3 3 30 -2 59 -7 48 -8 50 -14 23 -11 -49 -25 110 -25 275 0
170 14 323 26 275 4 -20 7 -23 8 -10 1 11 3 38 6 60 4 35 3 36 -4 10 -8 -27
-9 -28 -9 -5 0 14 4 39 8 55 7 28 8 29 10 5 l2 -25 8 25 c4 14 8 34 8 45 l1
20 -9 -20 -9 -20 0 20 c0 11 4 29 9 40 l9 20 1 -20 c1 -11 11 9 22 44 13 42
16 66 9 70 -6 4 -7 12 -1 21 9 13 10 13 10 0 1 -8 6 -4 11 9 7 18 6 27 -3 33
-10 6 -9 8 3 8 18 0 75 133 64 150 -4 6 -1 9 6 8 7 -2 14 6 16 17 3 17 2 18
-7 5 -10 -13 -11 -13 -7 0 2 8 10 15 18 15 8 0 14 10 13 22 0 12 4 21 10 20 6
-1 11 8 10 20 0 12 3 20 7 17 4 -2 19 15 33 39 29 49 32 62 14 51 -8 -4 -10
-3 -5 2 5 5 14 9 20 9 5 0 12 6 15 14 3 9 0 11 -9 6 -8 -5 -11 -4 -6 1 5 5 14
9 20 9 5 0 12 6 15 14 3 9 0 11 -9 6 -8 -5 -11 -4 -6 1 5 5 14 9 19 9 6 0 13
6 16 14 3 8 0 11 -7 7 -17 -11 -13 0 6 15 15 12 16 12 8 -1 -5 -9 0 -8 13 4
26 23 30 44 5 25 -16 -11 -16 -11 -5 1 7 8 18 15 24 15 6 0 13 6 16 14 3 8 0
11 -7 7 -20 -13 -12 0 16 25 l28 24 -20 -25 c-16 -21 -14 -20 13 4 31 29 47
61 17 36 -35 -29 -11 0 42 50 51 48 53 49 13 8 -78 -85 -38 -51 55 44 50 51
69 73 43 48 -27 -24 -48 -42 -48 -39 0 3 23 27 51 54 29 28 49 44 45 38 -13
-23 3 -14 62 34 31 26 96 72 144 102 117 76 132 87 73 55 -61 -33 -120 -72
-205 -136 -48 -36 -54 -39 -25 -13 61 56 218 157 332 214 338 169 693 236
1059 200z m910 -331 c40 -27 89 -65 110 -84 l39 -36 -45 35 c-71 55 -193 137
-203 137 -5 0 24 -22 64 -48 41 -27 100 -69 131 -95 56 -46 75 -57 63 -37 -13
21 3 8 50 -42 l50 -53 -50 45 c-27 25 -10 3 40 -48 49 -50 92 -92 94 -92 3 0
-15 20 -39 45 -24 25 -42 45 -39 45 2 0 29 -26 59 -57 30 -31 47 -51 38 -44
-31 23 -19 -4 14 -35 18 -16 24 -19 14 -6 -27 31 -15 28 15 -5 13 -14 18 -23
10 -18 -9 5 -12 3 -9 -6 3 -8 10 -14 16 -14 6 0 17 -7 24 -15 11 -12 11 -12
-4 -1 -26 19 -22 -2 4 -25 12 -10 18 -13 14 -6 -10 18 -1 15 15 -5 12 -14 12
-16 0 -9 -9 6 -12 4 -9 -5 3 -8 10 -14 16 -14 5 0 14 -4 19 -9 5 -5 2 -6 -6
-1 -9 5 -12 3 -9 -6 3 -8 10 -14 16 -14 5 0 14 -4 19 -9 5 -5 2 -6 -6 -1 -17
10 -16 7 37 -88 24 -42 47 -75 51 -73 4 3 7 -5 7 -17 -1 -12 4 -21 10 -20 6 1
10 -8 10 -20 -1 -13 4 -21 12 -19 8 1 11 -2 7 -8 -10 -15 46 -150 62 -150 7 0
13 -8 13 -17 0 -15 -2 -16 -10 -3 -12 18 -12 2 0 -25 6 -13 9 -15 9 -5 1 13 2
13 11 0 6 -9 5 -17 -1 -21 -7 -4 -4 -28 9 -70 11 -35 21 -55 22 -44 l1 20 9
-20 c5 -11 9 -29 9 -40 l0 -20 -9 20 -9 20 1 -20 c0 -11 4 -31 8 -45 l8 -25 2
25 c2 24 3 23 10 -5 4 -16 8 -41 8 -55 0 -23 -1 -22 -9 5 -7 26 -8 25 -4 -10
3 -22 5 -49 6 -60 1 -13 4 -10 8 10 12 48 26 -105 26 -275 0 -165 -14 -324
-25 -275 -6 27 -7 25 -14 -23 -5 -29 -5 -56 -2 -59 3 -4 6 6 6 22 0 16 3 25 7
22 3 -4 -2 -46 -12 -94 -12 -55 -21 -80 -25 -69 -4 13 -11 0 -23 -43 -19 -69
-21 -82 -7 -61 9 13 10 13 10 0 0 -8 -5 -22 -10 -30 -9 -13 -10 -13 -10 0 0
13 -1 13 -10 0 -5 -8 -10 -22 -10 -30 0 -13 1 -13 11 0 8 11 9 9 4 -10 -4 -14
-12 -29 -17 -35 -6 -6 -7 -3 -2 10 17 48 -6 3 -40 -77 -21 -48 -35 -92 -31
-98 4 -6 1 -9 -7 -8 -8 2 -13 -6 -12 -19 0 -12 -3 -20 -7 -17 -5 2 -15 -9 -24
-25 -18 -36 -19 -45 -3 -35 7 4 8 3 4 -5 -4 -6 -11 -9 -16 -6 -12 7 -43 -52
-35 -66 4 -5 1 -8 -6 -7 -6 2 -14 -3 -17 -11 -3 -9 0 -11 8 -6 9 5 11 4 6 -4
-4 -6 -11 -9 -16 -6 -10 6 -43 -43 -35 -55 3 -5 0 -12 -6 -16 -8 -5 -9 -3 -4
7 5 8 -1 5 -13 -5 -24 -21 -31 -46 -7 -26 24 20 18 5 -7 -16 -13 -12 -18 -13
-13 -4 5 9 0 8 -13 -4 -24 -21 -31 -46 -7 -26 24 20 18 5 -7 -16 -13 -12 -18
-13 -13 -4 5 9 0 8 -13 -4 -26 -23 -30 -44 -4 -25 9 7 -30 -35 -88 -94 -99
-102 -119 -120 -105 -97 13 21 -13 9 -36 -17 -22 -25 -22 -26 -1 -9 31 27 28
15 -5 -15 -14 -13 -23 -18 -19 -11 13 23 -9 12 -49 -24 l-40 -36 40 27 40 26
-35 -31 c-98 -88 -378 -233 -565 -293 -222 -71 -471 -105 -680 -92 -133 8
-239 21 -190 24 17 1 37 6 45 11 21 13 -27 13 -66 0 -17 -6 -47 -7 -74 -2 -42
8 -38 9 50 15 282 20 555 161 845 436 88 84 88 84 20 12 -82 -85 -235 -211
-323 -266 -34 -21 -62 -40 -62 -42 0 -8 71 36 154 95 117 84 388 349 314 306
-7 -4 0 7 16 24 36 39 49 43 15 5 -23 -27 -23 -27 9 1 30 28 45 55 22 41 -18
-11 -11 1 12 21 22 19 23 19 8 -1 -15 -20 -14 -20 8 -1 23 20 31 42 10 30 -9
-5 -9 -2 1 9 16 20 25 23 15 5 -4 -7 2 -4 14 6 26 23 30 45 5 25 -16 -13 -17
-12 -5 3 8 10 19 16 24 15 6 -1 13 4 16 12 3 9 0 11 -9 6 -8 -5 -11 -4 -6 1 5
5 14 9 20 9 5 0 12 6 15 14 3 9 0 11 -9 6 -8 -5 -11 -4 -6 1 5 5 14 9 20 9 5
0 12 6 15 14 3 9 0 11 -9 6 -8 -5 -11 -4 -6 1 5 5 14 9 20 9 5 0 12 6 15 14 3
9 0 11 -8 6 -9 -5 -11 -4 -6 4 4 6 11 9 16 6 12 -8 43 53 34 67 -4 7 -3 8 4 4
6 -4 18 6 27 23 18 36 19 44 3 35 -8 -4 -10 -3 -5 2 5 5 14 9 20 9 7 0 12 10
11 22 0 12 4 21 10 20 6 -1 11 8 10 20 0 12 3 20 7 17 5 -3 15 12 24 32 18 43
18 47 5 39 -6 -3 -7 1 -4 9 3 9 11 14 17 13 6 -1 12 7 14 18 3 16 2 17 -6 5
-6 -8 -11 -10 -11 -5 0 16 16 37 26 34 5 -1 10 6 12 17 3 16 1 16 -7 4 -6 -8
-11 -10 -11 -5 0 6 9 18 20 28 11 9 20 25 19 34 0 14 -2 13 -9 -4 -5 -13 -12
-23 -14 -23 -10 0 7 35 26 53 10 10 18 25 17 35 0 13 -3 11 -9 -5 -19 -47 -17
-20 6 66 53 207 58 431 11 591 -14 47 -24 86 -22 88 2 2 9 -15 16 -37 7 -23
14 -39 17 -36 8 8 -29 95 -40 92 -6 -1 -13 4 -16 12 -3 9 0 11 8 6 8 -5 11 -3
8 6 -3 8 -10 14 -15 14 -6 0 -15 4 -20 9 -5 5 -2 6 6 1 9 -5 12 -3 9 6 -3 8
-10 14 -15 14 -6 0 -15 4 -20 9 -5 5 -3 6 5 2 27 -16 9 14 -32 52 -43 40 -114
82 -137 82 -7 0 15 -13 47 -30 33 -16 73 -44 89 -62 l30 -32 -40 33 c-144 123
-375 119 -574 -9 -74 -48 -82 -44 -9 5 29 19 49 35 45 35 -12 0 -125 -78 -133
-92 -5 -9 -3 -9 9 1 25 20 21 7 -5 -15 -12 -10 -18 -13 -14 -6 4 6 3 12 -1 12
-15 0 -186 -178 -180 -187 4 -6 -6 -21 -21 -34 l-27 -24 25 30 25 30 -33 -29
c-31 -29 -44 -54 -19 -40 7 4 9 3 4 -2 -5 -5 -14 -9 -20 -9 -7 0 -12 -8 -12
-17 0 -10 -7 -23 -15 -30 -12 -11 -12 -10 0 7 15 20 14 20 -8 1 -23 -20 -31
-42 -9 -30 7 4 9 3 4 -2 -5 -5 -14 -9 -19 -9 -6 0 -13 -6 -16 -14 -3 -9 0 -11
8 -6 9 5 11 4 6 -4 -4 -6 -11 -9 -16 -6 -13 8 -63 -82 -54 -96 4 -8 3 -9 -4
-5 -6 4 -18 -6 -27 -23 -18 -36 -19 -45 -3 -35 7 4 8 3 4 -5 -4 -6 -11 -9 -16
-6 -5 3 -21 -17 -35 -44 -27 -55 -30 -65 -15 -56 6 3 7 -1 4 -9 -3 -9 -10 -13
-15 -11 -5 3 -15 -11 -24 -31 -18 -43 -18 -47 -5 -39 6 3 7 -1 4 -9 -3 -9 -10
-14 -14 -11 -8 5 -44 -74 -36 -82 2 -2 9 12 16 32 7 20 14 35 16 32 2 -2 -3
-25 -12 -51 -10 -29 -19 -43 -24 -36 -5 8 -9 7 -14 -5 -10 -26 -7 -42 5 -25 8
12 9 9 5 -10 -19 -75 -55 -193 -55 -180 -1 9 8 49 19 89 12 40 19 76 16 78 -3
3 -9 -12 -15 -33 -33 -128 -41 -164 -40 -185 1 -21 2 -20 9 6 5 17 5 -1 2 -40
-9 -91 -9 -271 0 -360 4 -40 3 -59 -2 -45 l-8 25 0 -25 c0 -14 3 -34 8 -45 8
-19 9 -19 9 -1 1 25 7 18 15 -19 5 -22 4 -26 -4 -15 -18 28 -11 -9 11 -53 24
-47 64 -93 94 -109 12 -6 7 2 -11 18 -16 16 -23 24 -15 18 81 -59 157 -57 226
4 17 15 14 10 -7 -11 -20 -20 -34 -37 -29 -37 13 0 101 98 101 111 0 7 -7 4
-16 -7 -15 -18 -15 -18 -5 3 17 35 13 56 -16 81 l-28 23 30 -17 30 -18 -24 27
c-13 14 -27 24 -32 22 -4 -3 -5 4 -2 14 3 12 -3 26 -16 37 -12 10 -21 25 -20
34 0 10 3 9 9 -5 l9 -20 -1 20 c0 11 -4 31 -8 45 l-8 25 -2 -25 c-2 -24 -3
-23 -10 5 -4 17 -7 50 -7 75 l0 45 6 -50 c3 -27 6 38 6 145 0 183 -8 172 -15
-20 -2 -52 -5 -63 -8 -35 -10 95 32 435 72 584 16 58 31 84 22 36 l-6 -30 11
29 c9 22 9 30 -2 37 -12 8 -6 13 12 11 9 -2 22 49 14 56 -3 3 -5 -2 -5 -11 0
-9 -4 -19 -10 -22 -16 -10 1 28 22 48 10 10 18 25 18 35 0 15 -2 15 -10 2 -11
-17 -13 -10 -4 14 3 9 10 14 14 11 12 -7 64 121 55 136 -5 8 -4 10 3 5 6 -4
18 6 27 23 18 36 19 44 3 35 -8 -4 -10 -3 -5 2 5 5 14 9 19 9 6 0 13 6 16 14
3 9 0 11 -9 6 -8 -5 -11 -4 -6 1 5 5 14 9 19 9 6 0 13 6 16 14 3 9 0 11 -9 6
-8 -5 -11 -4 -6 1 5 5 14 9 19 9 6 0 13 6 16 14 3 9 0 11 -9 6 -8 -4 2 9 21
29 49 52 127 96 172 96 43 0 107 -48 104 -78 0 -9 4 -16 10 -15 6 1 10 -8 10
-20 -1 -12 5 -22 13 -22 8 0 16 -7 18 -15 4 -13 3 -13 -6 0 -12 17 -14 10 -5
-14 3 -9 10 -14 15 -11 12 8 37 -85 50 -184 12 -96 5 -246 -17 -391 -21 -135
-65 -315 -74 -300 -4 6 -18 -23 -33 -71 -14 -46 -24 -85 -22 -87 2 -2 14 28
26 67 13 39 25 69 27 66 2 -2 -8 -41 -23 -86 -15 -45 -31 -76 -34 -70 -5 7
-19 -19 -35 -58 -15 -39 -24 -76 -20 -82 4 -7 3 -9 -4 -5 -6 3 -17 -8 -26 -25
-23 -45 -19 -61 4 -19 11 19 19 31 19 25 0 -19 -27 -60 -41 -60 -7 0 -13 -10
-12 -22 0 -12 -3 -20 -7 -17 -11 6 -41 -54 -34 -67 4 -5 1 -8 -6 -7 -6 2 -14
-3 -17 -11 -3 -9 0 -11 9 -6 8 5 11 4 6 -1 -5 -5 -14 -9 -19 -9 -6 0 -13 -6
-16 -14 -3 -9 0 -11 9 -6 8 5 11 4 6 -1 -5 -5 -14 -9 -19 -9 -6 0 -13 -6 -16
-14 -3 -8 0 -11 7 -7 19 12 12 0 -11 -20 -22 -19 -23 -19 -8 1 15 20 14 20 -8
1 -24 -20 -30 -41 -9 -31 6 4 -24 -29 -69 -73 -89 -88 -172 -135 -266 -152
-111 -21 -248 23 -323 101 -22 23 -34 38 -26 34 9 -5 12 -3 9 6 -3 8 -10 14
-16 14 -5 0 -14 4 -19 9 -5 5 -3 6 5 2 16 -10 16 -7 -12 55 -14 30 -30 76 -37
103 -9 37 -14 45 -19 31 -10 -29 -30 83 -37 210 -7 128 7 337 18 270 3 -22 7
-31 8 -19 0 12 3 43 6 70 4 41 3 44 -5 19 -7 -24 -8 -20 -4 20 7 62 34 177 45
189 5 5 4 -8 -2 -28 -6 -21 -9 -40 -6 -42 2 -2 11 24 21 57 9 34 14 64 11 67
-3 3 -5 -2 -5 -11 0 -9 -4 -18 -9 -21 -5 -4 -4 10 2 29 6 20 14 31 17 24 5 -7
9 -5 14 6 9 26 7 42 -4 25 -5 -8 -10 -10 -10 -5 0 6 9 18 20 28 11 9 20 22 20
29 0 6 -7 3 -15 -8 -13 -17 -13 -16 -3 13 8 22 15 28 20 20 4 -7 8 -9 8 -5 0
3 3 14 7 24 4 12 3 15 -5 10 -8 -5 -10 -2 -6 8 3 9 9 14 14 13 6 -2 110 188
110 201 0 2 -5 0 -12 -4 -7 -4 -8 -3 -4 5 4 6 11 9 16 6 5 -3 14 3 19 14 14
26 14 34 -1 25 -7 -4 -8 -3 -4 5 4 6 11 9 16 6 10 -6 43 43 36 54 -3 5 2 15
12 22 16 13 16 12 2 -6 -15 -20 -14 -20 8 -1 23 20 31 42 10 30 -9 -5 -9 -2 1
9 16 20 25 23 15 5 -4 -7 2 -4 14 6 24 21 31 46 7 26 -30 -25 -14 -3 22 31 34
31 35 31 13 4 l-25 -30 33 29 c30 28 45 55 22 41 -5 -3 -10 -5 -10 -3 0 2 118
120 262 263 145 143 243 239 218 213 -24 -27 -41 -48 -37 -48 12 0 92 93 91
106 -1 7 10 23 25 36 l26 23 -24 -27 c-14 -16 -21 -28 -17 -28 9 0 55 52 56
63 0 5 -4 5 -10 2 -18 -11 -11 1 12 21 22 19 23 19 8 -1 -15 -20 -14 -20 8 -1
22 19 31 43 12 31 -18 -11 -11 1 12 21 22 19 23 19 8 -1 -15 -20 -14 -20 8 -1
23 20 31 42 10 30 -8 -4 -10 -3 -5 2 5 5 14 9 19 9 6 0 13 6 16 14 3 9 0 11
-9 5 -12 -6 -12 -5 0 9 8 10 16 15 19 12 7 -6 32 15 32 27 0 5 -6 6 -12 2 -8
-4 -10 -3 -5 2 5 5 14 9 19 9 6 0 13 6 16 14 3 9 0 11 -9 6 -8 -5 -11 -4 -6 1
5 5 14 9 19 9 6 0 13 6 16 14 3 9 0 11 -9 6 -8 -5 -11 -4 -6 1 5 5 14 9 19 9
6 0 13 6 16 14 3 9 0 11 -9 6 -8 -5 -11 -4 -6 1 5 5 14 9 20 9 5 0 12 6 15 14
3 9 0 11 -9 6 -8 -5 -11 -4 -6 1 5 5 14 9 20 9 5 0 12 6 15 14 3 9 0 11 -9 6
-8 -5 -11 -4 -6 1 5 5 14 9 20 9 5 0 12 6 15 14 3 9 0 11 -9 6 -8 -5 -11 -4
-6 1 5 5 14 9 20 9 5 0 12 6 15 14 3 9 0 11 -8 6 -9 -5 -11 -4 -6 4 4 6 11 9
16 6 12 -7 63 82 55 95 -4 6 -1 9 6 8 6 -2 14 3 17 11 3 9 0 11 -8 6 -9 -5
-11 -4 -6 4 4 6 12 9 17 6 5 -4 31 40 58 97 51 106 73 167 51 138 -10 -12 -11
-12 -5 5 4 11 11 58 15 105 4 47 8 76 9 65 1 -17 3 -17 11 -5 7 11 3 20 -13
33 -33 28 44 -17 129 -75z"/>
</g>
</svg>
