<svg xmlns="http://www.w3.org/2000/svg" xmlns:xlink="http://www.w3.org/1999/xlink" width="76" height="74" viewBox="0 0 76 74"><defs><path id="a" d="M160.39 53.73c0 20.29-16.65 36.74-37.19 36.74-20.55 0-37.2-16.45-37.2-36.74C86 33.45 102.65 17 123.2 17c20.54 0 37.19 16.45 37.19 36.73"/><path id="b" d="M159.16 61.24s-1.1 5.07-2.32 7.2h-11.68c.74-2.57.64-5.18.08-7.2zm-31.14-11.83l.01.01c8.58 0 15.53 6.87 15.53 15.34 0 8.47-6.95 15.34-15.53 15.34l-31.2.01s-2.6-2.12-5.83-7.19h37.03v-.01a8.2 8.2 0 0 0 8.25-8.15 8.2 8.2 0 0 0-8.25-8.15h-5.46l3.8-7.2zm-.49-22.54c2.58-4.9 4.44-8.37 4.77-8.87 5.22 1.16 6.79 2.75 6.79 2.75l-7.01 13.32h-14.81a7.73 7.73 0 0 0-7.76 7.67 7.7 7.7 0 0 0 6.3 7.53l6.81-13.06h8.35l-6.92 13.2L121.1 55l-3.27 6.24h15.58a6.96 6.96 0 0 1 0 7.2l-27.57.01 6.57-12.65a14.87 14.87 0 0 1-10.17-14.06c0-8.21 6.73-14.86 15.03-14.87z"/></defs><g transform="translate(-85 -17)"><use fill="#fefefe" xlink:href="#a"/><use fill="#216aa9" xlink:href="#b"/></g></svg>