<?xml version="1.0" encoding="UTF-8" standalone="no"?>
<svg
   xmlns:dc="http://purl.org/dc/elements/1.1/"
   xmlns:cc="http://creativecommons.org/ns#"
   xmlns:rdf="http://www.w3.org/1999/02/22-rdf-syntax-ns#"
   xmlns:svg="http://www.w3.org/2000/svg"
   xmlns="http://www.w3.org/2000/svg"
   width="36.389473"
   height="94.215935"
   viewBox="0 0 36.389473 94.215935"
   version="1.1"
   id="svg11">
  <metadata
     id="metadata12">
    <rdf:RDF>
      <cc:Work
         rdf:about="">
        <dc:format>image/svg+xml</dc:format>
        <dc:type
           rdf:resource="http://purl.org/dc/dcmitype/StillImage" />
        <dc:title></dc:title>
      </cc:Work>
    </rdf:RDF>
  </metadata>
  <defs
     id="defs3">
    <path
       id="v6i8a"
       d="m 401,2630 a 50,50 0 0 1 50,-50 h 460 a 50,50 0 0 1 50,50 v 23 c 0.1,51.83 30,55.2 30,55.2 0,0 -29.9,3.37 -30,55.2 v 26.6 a 50,50 0 0 1 -50,50 H 451 a 50,50 0 0 1 -50,-50 z" />
  </defs>
  <path
     style="opacity:1;fill:#999999;fill-opacity:1;stroke:#999999;stroke-width:2;stroke-linecap:round;stroke-miterlimit:4;stroke-dasharray:none;stroke-opacity:1"
     d="m 1.027498,1.0013777 -0.027203,92.2127373 4.6839029,0.0015 C 5.6943604,77.286581 16.424155,50.409116 35.383287,47.963203 c 0,0 0.02032,-0.304281 -0.01016,-0.731108 L 35.343657,46.77609 C 17.848928,41.918511 5.6921183,20.488907 5.6639684,1.007763 Z"
     id="rect2123-3" />
  <path
     style="fill:none;stroke-width:2px;stroke-linecap:butt;stroke-linejoin:miter;stroke-opacity:1"
     d="m -1352.7341,2615.2866 a 50,50 0 0 1 50,-50 h 460 a 50,50 0 0 1 50,50 v 23 c 0.1,51.83 30,55.2 30,55.2 0,0 -29.9,3.37 -30,55.2 v 26.6 a 50,50 0 0 1 -50,50 h -460 a 50,50 0 0 1 -50,-50 z"
     id="path1969" />
  <path
     style="opacity:1;fill-opacity:0;stroke-width:2px;stroke-linecap:round;stroke-miterlimit:4;stroke-dasharray:none;stroke-opacity:1"
     d="m 6.6533079,93.972456 c 0.01,-15.929057 10.0710361,-42.446992 28.7271361,-44.892905 0,0 0.02,-0.304281 -0.01,-0.731108 l -0.029,-0.456005 C 18.126344,43.034824 6.7016124,21.452401 6.6739124,1.9712569"
     id="rect2123" />
  <path
     style="opacity:1;fill:none;fill-opacity:1;stroke:#000000;stroke-width:2;stroke-linecap:round;stroke-miterlimit:4;stroke-dasharray:none;stroke-opacity:1"
     d="m 5.6669154,92.883158 v 0 c 0.01016,-15.929057 10.7542906,-42.474007 29.7134226,-44.91992 0,0 0.02032,-0.304281 -0.01016,-0.731108 l -0.02947,-0.456005 C 17.845979,41.918511 5.6921184,20.488907 5.6639684,1.007763 h 0.00295 v 1.4688491 0 m 0,90.4065459 v 0.33248 h 0.01728 c 0,-0.11083 -0.01219,-0.22165 -0.01728,-0.33248 z"
     id="rect2123-3-6" />
</svg>
